<svg xmlns="http://www.w3.org/2000/svg" xmlns:xlink="http://www.w3.org/1999/xlink" xmlns:lucid="lucid" width="2280" height="2330.5"><g transform="translate(320 -86.49999999999983)" lucid:page-tab-id="0_0"><path d="M-1806.4 0h5483.2v2582.4h-5483.2z" fill="#fff"/><path d="M80 520h360v350H80z" stroke="#000" stroke-width="2" fill="#fff"/><path d="M80 557.6h360M80 638.3h360" stroke="#000" stroke-width="2" fill="none"/><use xlink:href="#a" transform="matrix(1,0,0,1,88,528) translate(145.55 14.6)"/><use xlink:href="#b" transform="matrix(1,0,0,1,92,565.6) translate(0 25.299999999999997)"/><use xlink:href="#c" transform="matrix(1,0,0,1,92,565.6) translate(10.95 25.299999999999997)"/><use xlink:href="#d" transform="matrix(1,0,0,1,92,565.6) translate(69.9 25.299999999999997)"/><use xlink:href="#b" transform="matrix(1,0,0,1,92,565.6) translate(0 46.9)"/><use xlink:href="#e" transform="matrix(1,0,0,1,92,565.6) translate(10.95 46.9)"/><use xlink:href="#f" transform="matrix(1,0,0,1,92,565.6) translate(63.849999999999994 46.9)"/><use xlink:href="#g" transform="matrix(1,0,0,1,92,646.3000000000001) translate(0 25.20000000000001)"/><use xlink:href="#h" transform="matrix(1,0,0,1,92,646.3000000000001) translate(15.5 25.20000000000001)"/><use xlink:href="#i" transform="matrix(1,0,0,1,92,646.3000000000001) translate(123.25000000000001 25.20000000000001)"/><use xlink:href="#g" transform="matrix(1,0,0,1,92,646.3000000000001) translate(0 46.80000000000001)"/><use xlink:href="#j" transform="matrix(1,0,0,1,92,646.3000000000001) translate(15.5 46.80000000000001)"/><use xlink:href="#k" transform="matrix(1,0,0,1,92,646.3000000000001) translate(73.4 46.80000000000001)"/><use xlink:href="#g" transform="matrix(1,0,0,1,92,646.3000000000001) translate(0 68.40000000000002)"/><use xlink:href="#l" transform="matrix(1,0,0,1,92,646.3000000000001) translate(15.5 68.40000000000002)"/><use xlink:href="#d" transform="matrix(1,0,0,1,92,646.3000000000001) translate(77.4 68.40000000000002)"/><use xlink:href="#g" transform="matrix(1,0,0,1,92,646.3000000000001) translate(0 90.00000000000003)"/><use xlink:href="#m" transform="matrix(1,0,0,1,92,646.3000000000001) translate(15.5 90.00000000000003)"/><use xlink:href="#d" transform="matrix(1,0,0,1,92,646.3000000000001) translate(120.10000000000001 90.00000000000003)"/><use xlink:href="#g" transform="matrix(1,0,0,1,92,646.3000000000001) translate(0 111.60000000000002)"/><use xlink:href="#n" transform="matrix(1,0,0,1,92,646.3000000000001) translate(15.5 111.60000000000002)"/><use xlink:href="#d" transform="matrix(1,0,0,1,92,646.3000000000001) translate(137.05 111.60000000000002)"/><use xlink:href="#g" transform="matrix(1,0,0,1,92,646.3000000000001) translate(0 133.20000000000002)"/><use xlink:href="#o" transform="matrix(1,0,0,1,92,646.3000000000001) translate(15.5 133.20000000000002)"/><use xlink:href="#p" transform="matrix(1,0,0,1,92,646.3000000000001) translate(133.35000000000002 133.20000000000002)"/><use xlink:href="#q" transform="matrix(1,0,0,1,92,646.3000000000001) translate(183.20000000000002 133.20000000000002)"/><use xlink:href="#g" transform="matrix(1,0,0,1,92,646.3000000000001) translate(0 154.8)"/><use xlink:href="#r" transform="matrix(1,0,0,1,92,646.3000000000001) translate(15.5 154.8)"/><use xlink:href="#p" transform="matrix(1,0,0,1,92,646.3000000000001) translate(168.25 154.8)"/><use xlink:href="#q" transform="matrix(1,0,0,1,92,646.3000000000001) translate(218.1 154.8)"/><use xlink:href="#g" transform="matrix(1,0,0,1,92,646.3000000000001) translate(0 176.4)"/><use xlink:href="#s" transform="matrix(1,0,0,1,92,646.3000000000001) translate(15.5 176.4)"/><use xlink:href="#q" transform="matrix(1,0,0,1,92,646.3000000000001) translate(76.30000000000001 176.4)"/><use xlink:href="#g" transform="matrix(1,0,0,1,92,646.3000000000001) translate(0 198)"/><use xlink:href="#t" transform="matrix(1,0,0,1,92,646.3000000000001) translate(15.5 198)"/><use xlink:href="#u" transform="matrix(1,0,0,1,92,646.3000000000001) translate(160.3 198)"/><use xlink:href="#v" transform="matrix(1,0,0,1,92,646.3000000000001) translate(225.15000000000003 198)"/><path d="M260 518v-4m0-8.04v-8.03m0-8.03v-8.03m0-8.03v-8.03m0-8.02v-6.53h1.5m8.02 0h8.03m8.03 0h8.03m8.04 0h8.03m8.03 0h8.03m8.02 0h8.03m8.03 0h8.04m8.03 0h8.03m8.03 0h8.03m8.02 0H406m8.04 0h8.03m8.03 0h8.03m8.03 0h8.03m8.02 0h8.02m8.03 0h8.03m8.03 0h8.03m8.03 0h8.02m8.03 0h8.02m8.03 0h8.03m8.03 0h8.03m8.02 0h8.03m8.03 0h8.03m8.03 0h8.03m8.03 0h8.02m8.03 0h8.03m8.03 0h8.04m8.02 0H679m8.02 0h8.03m8.03 0h8.03m.9-7.14v-8.02m0-8.02v-8.03m0-8.03v-4.02" stroke="#000" stroke-width="2" fill="none"/><path d="M261 519h-2v-1.03h2z"/><path d="M712 385.46l12.73 21.52h-25.46zM530 520h360v350H530z" stroke="#000" stroke-width="2" fill="#fff"/><path d="M530 557.6h360m-360 80.7h360" stroke="#000" stroke-width="2" fill="none"/><use xlink:href="#w" transform="matrix(1,0,0,1,538,528) translate(148.575 14.6)"/><use xlink:href="#b" transform="matrix(1,0,0,1,542,565.6) translate(0 25.299999999999997)"/><use xlink:href="#c" transform="matrix(1,0,0,1,542,565.6) translate(10.95 25.299999999999997)"/><use xlink:href="#d" transform="matrix(1,0,0,1,542,565.6) translate(69.9 25.299999999999997)"/><use xlink:href="#b" transform="matrix(1,0,0,1,542,565.6) translate(0 46.9)"/><use xlink:href="#e" transform="matrix(1,0,0,1,542,565.6) translate(10.95 46.9)"/><use xlink:href="#f" transform="matrix(1,0,0,1,542,565.6) translate(63.849999999999994 46.9)"/><use xlink:href="#g" transform="matrix(1,0,0,1,542,646.3000000000001) translate(0 25.20000000000001)"/><use xlink:href="#h" transform="matrix(1,0,0,1,542,646.3000000000001) translate(15.5 25.20000000000001)"/><use xlink:href="#i" transform="matrix(1,0,0,1,542,646.3000000000001) translate(123.25000000000001 25.20000000000001)"/><use xlink:href="#g" transform="matrix(1,0,0,1,542,646.3000000000001) translate(0 46.80000000000001)"/><use xlink:href="#j" transform="matrix(1,0,0,1,542,646.3000000000001) translate(15.5 46.80000000000001)"/><use xlink:href="#k" transform="matrix(1,0,0,1,542,646.3000000000001) translate(73.4 46.80000000000001)"/><use xlink:href="#g" transform="matrix(1,0,0,1,542,646.3000000000001) translate(0 68.40000000000002)"/><use xlink:href="#l" transform="matrix(1,0,0,1,542,646.3000000000001) translate(15.5 68.40000000000002)"/><use xlink:href="#d" transform="matrix(1,0,0,1,542,646.3000000000001) translate(77.4 68.40000000000002)"/><use xlink:href="#g" transform="matrix(1,0,0,1,542,646.3000000000001) translate(0 90.00000000000003)"/><use xlink:href="#m" transform="matrix(1,0,0,1,542,646.3000000000001) translate(15.5 90.00000000000003)"/><use xlink:href="#d" transform="matrix(1,0,0,1,542,646.3000000000001) translate(120.10000000000001 90.00000000000003)"/><use xlink:href="#g" transform="matrix(1,0,0,1,542,646.3000000000001) translate(0 111.60000000000002)"/><use xlink:href="#n" transform="matrix(1,0,0,1,542,646.3000000000001) translate(15.5 111.60000000000002)"/><use xlink:href="#d" transform="matrix(1,0,0,1,542,646.3000000000001) translate(137.05 111.60000000000002)"/><use xlink:href="#g" transform="matrix(1,0,0,1,542,646.3000000000001) translate(0 133.20000000000002)"/><use xlink:href="#o" transform="matrix(1,0,0,1,542,646.3000000000001) translate(15.5 133.20000000000002)"/><use xlink:href="#p" transform="matrix(1,0,0,1,542,646.3000000000001) translate(133.35000000000002 133.20000000000002)"/><use xlink:href="#q" transform="matrix(1,0,0,1,542,646.3000000000001) translate(183.20000000000002 133.20000000000002)"/><use xlink:href="#g" transform="matrix(1,0,0,1,542,646.3000000000001) translate(0 154.8)"/><use xlink:href="#r" transform="matrix(1,0,0,1,542,646.3000000000001) translate(15.5 154.8)"/><use xlink:href="#p" transform="matrix(1,0,0,1,542,646.3000000000001) translate(168.25 154.8)"/><use xlink:href="#q" transform="matrix(1,0,0,1,542,646.3000000000001) translate(218.1 154.8)"/><use xlink:href="#g" transform="matrix(1,0,0,1,542,646.3000000000001) translate(0 176.4)"/><use xlink:href="#s" transform="matrix(1,0,0,1,542,646.3000000000001) translate(15.5 176.4)"/><use xlink:href="#q" transform="matrix(1,0,0,1,542,646.3000000000001) translate(76.30000000000001 176.4)"/><use xlink:href="#g" transform="matrix(1,0,0,1,542,646.3000000000001) translate(0 198)"/><use xlink:href="#t" transform="matrix(1,0,0,1,542,646.3000000000001) translate(15.5 198)"/><use xlink:href="#u" transform="matrix(1,0,0,1,542,646.3000000000001) translate(160.3 198)"/><use xlink:href="#v" transform="matrix(1,0,0,1,542,646.3000000000001) translate(225.15000000000003 198)"/><path d="M980 520h360v350H980z" stroke="#000" stroke-width="2" fill="#fff"/><path d="M980 557.6h360m-360 80.7h360" stroke="#000" stroke-width="2" fill="none"/><use xlink:href="#x" transform="matrix(1,0,0,1,988,528) translate(146.525 14.6)"/><use xlink:href="#b" transform="matrix(1,0,0,1,992,565.6) translate(0 25.299999999999997)"/><use xlink:href="#c" transform="matrix(1,0,0,1,992,565.6) translate(10.95 25.299999999999997)"/><use xlink:href="#d" transform="matrix(1,0,0,1,992,565.6) translate(69.9 25.299999999999997)"/><use xlink:href="#b" transform="matrix(1,0,0,1,992,565.6) translate(0 46.9)"/><use xlink:href="#e" transform="matrix(1,0,0,1,992,565.6) translate(10.95 46.9)"/><use xlink:href="#f" transform="matrix(1,0,0,1,992,565.6) translate(63.849999999999994 46.9)"/><use xlink:href="#g" transform="matrix(1,0,0,1,992,646.3000000000001) translate(0 25.20000000000001)"/><use xlink:href="#h" transform="matrix(1,0,0,1,992,646.3000000000001) translate(15.5 25.20000000000001)"/><use xlink:href="#i" transform="matrix(1,0,0,1,992,646.3000000000001) translate(123.25000000000001 25.20000000000001)"/><use xlink:href="#g" transform="matrix(1,0,0,1,992,646.3000000000001) translate(0 46.80000000000001)"/><use xlink:href="#j" transform="matrix(1,0,0,1,992,646.3000000000001) translate(15.5 46.80000000000001)"/><use xlink:href="#k" transform="matrix(1,0,0,1,992,646.3000000000001) translate(73.4 46.80000000000001)"/><use xlink:href="#g" transform="matrix(1,0,0,1,992,646.3000000000001) translate(0 68.40000000000002)"/><use xlink:href="#l" transform="matrix(1,0,0,1,992,646.3000000000001) translate(15.5 68.40000000000002)"/><use xlink:href="#d" transform="matrix(1,0,0,1,992,646.3000000000001) translate(77.4 68.40000000000002)"/><use xlink:href="#g" transform="matrix(1,0,0,1,992,646.3000000000001) translate(0 90.00000000000003)"/><use xlink:href="#m" transform="matrix(1,0,0,1,992,646.3000000000001) translate(15.5 90.00000000000003)"/><use xlink:href="#d" transform="matrix(1,0,0,1,992,646.3000000000001) translate(120.10000000000001 90.00000000000003)"/><use xlink:href="#g" transform="matrix(1,0,0,1,992,646.3000000000001) translate(0 111.60000000000002)"/><use xlink:href="#n" transform="matrix(1,0,0,1,992,646.3000000000001) translate(15.5 111.60000000000002)"/><use xlink:href="#d" transform="matrix(1,0,0,1,992,646.3000000000001) translate(137.05 111.60000000000002)"/><use xlink:href="#g" transform="matrix(1,0,0,1,992,646.3000000000001) translate(0 133.20000000000002)"/><use xlink:href="#o" transform="matrix(1,0,0,1,992,646.3000000000001) translate(15.5 133.20000000000002)"/><use xlink:href="#p" transform="matrix(1,0,0,1,992,646.3000000000001) translate(133.35000000000002 133.20000000000002)"/><use xlink:href="#q" transform="matrix(1,0,0,1,992,646.3000000000001) translate(183.20000000000002 133.20000000000002)"/><use xlink:href="#g" transform="matrix(1,0,0,1,992,646.3000000000001) translate(0 154.8)"/><use xlink:href="#r" transform="matrix(1,0,0,1,992,646.3000000000001) translate(15.5 154.8)"/><use xlink:href="#p" transform="matrix(1,0,0,1,992,646.3000000000001) translate(168.25 154.8)"/><use xlink:href="#q" transform="matrix(1,0,0,1,992,646.3000000000001) translate(218.1 154.8)"/><use xlink:href="#g" transform="matrix(1,0,0,1,992,646.3000000000001) translate(0 176.4)"/><use xlink:href="#s" transform="matrix(1,0,0,1,992,646.3000000000001) translate(15.5 176.4)"/><use xlink:href="#q" transform="matrix(1,0,0,1,992,646.3000000000001) translate(76.30000000000001 176.4)"/><use xlink:href="#g" transform="matrix(1,0,0,1,992,646.3000000000001) translate(0 198)"/><use xlink:href="#t" transform="matrix(1,0,0,1,992,646.3000000000001) translate(15.5 198)"/><use xlink:href="#u" transform="matrix(1,0,0,1,992,646.3000000000001) translate(160.3 198)"/><use xlink:href="#v" transform="matrix(1,0,0,1,992,646.3000000000001) translate(225.15000000000003 198)"/><path d="M1160 518v-4m0-8v-8m0-8v-8m0-8v-8m0-8v-6.75h-1.25m-8 0h-8m-8 0h-8m-8 0h-8m-8 0h-8m-8 0h-8m-8 0h-8m-8 0h-8m-8 0h-8m-8 0h-8m-8 0h-8m-8 0h-8m-8 0h-8m-8 0h-8m-8 0h-8m-8 0h-8m-8 0h-8m-8 0h-8m-8 0h-8m-8 0h-8m-8 0h-8m-8 0h-8m-8 0h-8m-8 0h-8m-8 0h-8m-8 0h-8m-8 0h-8m-8 0h-8.02m-8 0h-8m-.73-7.27v-8m0-8v-8m0-8v-4" stroke="#000" stroke-width="2" fill="none"/><path d="M1161 519h-2v-1.03h2z"/><path d="M710 385.46l12.73 21.52h-25.46z" stroke="#000" stroke-width="2" fill="#fff"/><path d="M710 518v-3.93m0-7.86v-7.85m0-7.85v-7.86m0-7.86v-7.86m0-7.86v-7.86m0-7.85v-7.86m0-7.87v-7.86m0-7.86V408" stroke="#000" stroke-width="2" fill="none"/><path d="M711 519h-2v-1.03h2z"/><path d="M710 385.46l12.73 21.52h-25.46z" stroke="#000" stroke-width="2" fill="#fff"/><path d="M1438 244.5H915.48" stroke="#000" stroke-width="2" fill="none"/><path d="M1439 245.5h-1.03v-2h1.03z"/><path d="M892.96 244.5l21.52-12.73v25.46zM1440 520h360v415h-360z" stroke="#000" stroke-width="2" fill="#fff"/><path d="M1440 557.6h360m-360 102.3h360" stroke="#000" stroke-width="2" fill="none"/><use xlink:href="#y" transform="matrix(1,0,0,1,1448,528) translate(144.075 14.6)"/><use xlink:href="#b" transform="matrix(1,0,0,1,1452,565.6) translate(0 25.5)"/><use xlink:href="#c" transform="matrix(1,0,0,1,1452,565.6) translate(10.95 25.5)"/><use xlink:href="#d" transform="matrix(1,0,0,1,1452,565.6) translate(69.9 25.5)"/><use xlink:href="#b" transform="matrix(1,0,0,1,1452,565.6) translate(0 47.1)"/><use xlink:href="#e" transform="matrix(1,0,0,1,1452,565.6) translate(10.95 47.1)"/><use xlink:href="#d" transform="matrix(1,0,0,1,1452,565.6) translate(63.849999999999994 47.1)"/><use xlink:href="#b" transform="matrix(1,0,0,1,1452,565.6) translate(0 68.7)"/><use xlink:href="#z" transform="matrix(1,0,0,1,1452,565.6) translate(10.95 68.7)"/><use xlink:href="#g" transform="matrix(1,0,0,1,1452,667.9) translate(0 25.600000000000016)"/><use xlink:href="#h" transform="matrix(1,0,0,1,1452,667.9) translate(15.5 25.600000000000016)"/><use xlink:href="#i" transform="matrix(1,0,0,1,1452,667.9) translate(123.25000000000001 25.600000000000016)"/><use xlink:href="#g" transform="matrix(1,0,0,1,1452,667.9) translate(0 47.20000000000002)"/><use xlink:href="#j" transform="matrix(1,0,0,1,1452,667.9) translate(15.5 47.20000000000002)"/><use xlink:href="#k" transform="matrix(1,0,0,1,1452,667.9) translate(73.4 47.20000000000002)"/><use xlink:href="#g" transform="matrix(1,0,0,1,1452,667.9) translate(0 68.80000000000003)"/><use xlink:href="#l" transform="matrix(1,0,0,1,1452,667.9) translate(15.5 68.80000000000003)"/><use xlink:href="#d" transform="matrix(1,0,0,1,1452,667.9) translate(77.4 68.80000000000003)"/><use xlink:href="#g" transform="matrix(1,0,0,1,1452,667.9) translate(0 90.40000000000003)"/><use xlink:href="#m" transform="matrix(1,0,0,1,1452,667.9) translate(15.5 90.40000000000003)"/><use xlink:href="#d" transform="matrix(1,0,0,1,1452,667.9) translate(120.10000000000001 90.40000000000003)"/><use xlink:href="#g" transform="matrix(1,0,0,1,1452,667.9) translate(0 112.00000000000003)"/><use xlink:href="#n" transform="matrix(1,0,0,1,1452,667.9) translate(15.5 112.00000000000003)"/><use xlink:href="#d" transform="matrix(1,0,0,1,1452,667.9) translate(137.05 112.00000000000003)"/><use xlink:href="#g" transform="matrix(1,0,0,1,1452,667.9) translate(0 133.60000000000002)"/><use xlink:href="#o" transform="matrix(1,0,0,1,1452,667.9) translate(15.5 133.60000000000002)"/><use xlink:href="#p" transform="matrix(1,0,0,1,1452,667.9) translate(133.35000000000002 133.60000000000002)"/><use xlink:href="#q" transform="matrix(1,0,0,1,1452,667.9) translate(183.20000000000002 133.60000000000002)"/><use xlink:href="#g" transform="matrix(1,0,0,1,1452,667.9) translate(0 155.20000000000002)"/><use xlink:href="#A" transform="matrix(1,0,0,1,1452,667.9) translate(15.5 155.20000000000002)"/><use xlink:href="#p" transform="matrix(1,0,0,1,1452,667.9) translate(195.2 155.20000000000002)"/><use xlink:href="#q" transform="matrix(1,0,0,1,1452,667.9) translate(245.04999999999998 155.20000000000002)"/><use xlink:href="#g" transform="matrix(1,0,0,1,1452,667.9) translate(0 176.8)"/><use xlink:href="#B" transform="matrix(1,0,0,1,1452,667.9) translate(15.5 176.8)"/><use xlink:href="#p" transform="matrix(1,0,0,1,1452,667.9) translate(230.09999999999997 176.8)"/><use xlink:href="#q" transform="matrix(1,0,0,1,1452,667.9) translate(279.95 176.8)"/><use xlink:href="#g" transform="matrix(1,0,0,1,1452,667.9) translate(0 198.4)"/><use xlink:href="#r" transform="matrix(1,0,0,1,1452,667.9) translate(15.5 198.4)"/><use xlink:href="#p" transform="matrix(1,0,0,1,1452,667.9) translate(168.25 198.4)"/><use xlink:href="#q" transform="matrix(1,0,0,1,1452,667.9) translate(218.1 198.4)"/><use xlink:href="#g" transform="matrix(1,0,0,1,1452,667.9) translate(0 220)"/><use xlink:href="#s" transform="matrix(1,0,0,1,1452,667.9) translate(15.5 220)"/><use xlink:href="#q" transform="matrix(1,0,0,1,1452,667.9) translate(76.30000000000001 220)"/><use xlink:href="#g" transform="matrix(1,0,0,1,1452,667.9) translate(0 241.6)"/><use xlink:href="#t" transform="matrix(1,0,0,1,1452,667.9) translate(15.5 241.6)"/><use xlink:href="#u" transform="matrix(1,0,0,1,1452,667.9) translate(160.3 241.6)"/><use xlink:href="#v" transform="matrix(1,0,0,1,1452,667.9) translate(225.15000000000003 241.6)"/><path d="M1620 518v-4.2m0-8.43v-8.42m0-8.42v-8.43m0-8.42v-8.42m0-8.42v-8.42m0-8.42v-8.42m0-8.42v-8.42m0-8.43v-8.4m0-8.43v-4.2" stroke="#000" stroke-width="2" fill="none"/><path d="M1621 519h-2v-1.03h2z"/><path d="M1620 360.74l12.73 21.52h-25.46z" stroke="#000" stroke-width="2" fill="#fff"/><path d="M284.87 1430v-93.25H632.2v-69.77" stroke="#000" stroke-width="2" fill="none"/><path d="M285.87 1431h-2v-1.03h2z"/><path d="M632.2 1244.46l12.72 21.52h-25.45z" stroke="#000" stroke-width="2" fill="#fff"/><path d="M860 1430v-93.25H632.2v-69.77" stroke="#000" stroke-width="2" fill="none"/><path d="M861 1431h-2v-1.03h2z"/><path d="M632.2 1244.46l12.72 21.52h-25.45z" stroke="#000" stroke-width="2" fill="#fff"/><path d="M1300 1430v-93.25h257.1v-69.77" stroke="#000" stroke-width="2" fill="none"/><path d="M1301 1431h-2v-1.03h2z"/><path d="M1557.1 1244.46l12.7 21.52h-25.44z" stroke="#000" stroke-width="2" fill="#fff"/><path d="M1760 1430v-93.25h-202.9v-69.77" stroke="#000" stroke-width="2" fill="none"/><path d="M1761 1431h-2v-1.03h2z"/><path d="M1557.1 1244.46l12.7 21.52h-25.44z" stroke="#000" stroke-width="2" fill="#fff"/><path d="M1620 966.75v147.75" stroke="#000" stroke-width="2" fill="none"/><path d="M1620 937.4l14.85 14.86L1620 967.4l-14.85-15.14z" stroke="#000" stroke-width="2" fill="#fff"/><path d="M1621 1115.5h-2v-1.03h2z"/><path d="M260 901.75v91.5h314.83v121.25" stroke="#000" stroke-width="2" fill="none"/><path d="M260 872.4l14.85 14.86L260 902.4l-14.85-15.14z" stroke="#000" stroke-width="2" fill="#fff"/><path d="M575.83 1115.5h-2v-1.03h2z"/><path d="M678.72 901.75v212.75" stroke="#000" stroke-width="2" fill="none"/><path d="M678.72 872.4l14.85 14.86-14.85 15.15-14.85-15.14z" stroke="#000" stroke-width="2" fill="#fff"/><path d="M679.72 1115.5h-2v-1.03h2z"/><path d="M1160 901.75v91.5H731.6v121.25" stroke="#000" stroke-width="2" fill="none"/><path d="M1160 872.4l14.85 14.86L1160 902.4l-14.85-15.14z" stroke="#000" stroke-width="2" fill="#fff"/><path d="M732.6 1115.5h-2v-1.03h2z"/><path d="M-300 1680H60v156h-360z" stroke="#000" stroke-width="2" fill="#fff"/><path d="M-300 1717.6H60m-360 59.1H60" stroke="#000" stroke-width="2" fill="none"/><g><use xlink:href="#C" transform="matrix(1,0,0,1,-292,1688) translate(156.5 14.6)"/></g><g><use xlink:href="#g" transform="matrix(1,0,0,1,-288,1784.6999999999998) translate(0 25.6)"/><use xlink:href="#m" transform="matrix(1,0,0,1,-288,1784.6999999999998) translate(15.5 25.6)"/><use xlink:href="#f" transform="matrix(1,0,0,1,-288,1784.6999999999998) translate(120.10000000000001 25.6)"/></g><path d="M-140 1920h360v156h-360z" stroke="#000" stroke-width="2" fill="#fff"/><path d="M-140 1957.6h360m-360 59.1h360" stroke="#000" stroke-width="2" fill="none"/><g><use xlink:href="#D" transform="matrix(1,0,0,1,-132,1928) translate(146.55 14.6)"/></g><g><use xlink:href="#g" transform="matrix(1,0,0,1,-128,2024.6999999999998) translate(0 25.6)"/><use xlink:href="#m" transform="matrix(1,0,0,1,-128,2024.6999999999998) translate(15.5 25.6)"/><use xlink:href="#f" transform="matrix(1,0,0,1,-128,2024.6999999999998) translate(120.10000000000001 25.6)"/></g><path d="M380 1909.5h360v177H380z" stroke="#000" stroke-width="2" fill="#fff"/><path d="M380 1947.1h360m-360 59.1h360" stroke="#000" stroke-width="2" fill="none"/><g><use xlink:href="#E" transform="matrix(1,0,0,1,388,1917.5) translate(153.675 14.6)"/></g><g><use xlink:href="#g" transform="matrix(1,0,0,1,392,2014.1999999999998) translate(0 25.299999999999997)"/><use xlink:href="#m" transform="matrix(1,0,0,1,392,2014.1999999999998) translate(15.5 25.299999999999997)"/><use xlink:href="#d" transform="matrix(1,0,0,1,392,2014.1999999999998) translate(120.10000000000001 25.299999999999997)"/><use xlink:href="#g" transform="matrix(1,0,0,1,392,2014.1999999999998) translate(0 46.9)"/><use xlink:href="#n" transform="matrix(1,0,0,1,392,2014.1999999999998) translate(15.5 46.9)"/><use xlink:href="#f" transform="matrix(1,0,0,1,392,2014.1999999999998) translate(137.05 46.9)"/></g><path d="M533.74 1907.5v-4m0-7.96v-7.97m0-7.97v-7.97m0-7.97v-7.97m0-7.98v-7.97m0-7.97v-7.97m0-7.96v-7.97m0-7.97v-7.97m0-7.98v-7.97m0-7.97v-7.96m0-7.97v-7.97m0-7.97v-7.97m0-7.97v-7.98m0-7.97v-7.97m0-7.97v-7.96m0-7.97v-7.98m0-7.98v-7.97m0-7.97v-7.97m0-7.96V1620h-3.43m-7.96 0h-7.97m-7.98 0h-7.98m-7.97 0h-7.97m-7.97 0h-7.96m-7.97 0h-7.97m-7.97 0h-7.97m-7.97 0h-7.98m-7.97 0h-7.97m-7.97 0h-7.97m-7.97 0h-7.97m-7.98 0h-7.97m-7.97 0H339m-7.96 0h-7.97m-7.97 0h-7.97m-7.97 0h-7.97m-6.33-1.65v-7.97m0-7.97v-7.96m0-7.97v-4" stroke="#000" stroke-width="2" fill="none"/><path d="M534.74 1908.5h-2v-1.03h2z"/><path d="M284.87 1559.96l12.72 21.52h-25.46z" stroke="#000" stroke-width="2" fill="#fff"/><path d="M578.97 1907.5v-4m0-7.96v-7.98m0-7.97v-7.98m0-7.98v-7.97m0-7.98v-7.98m0-7.98v-7.97m0-7.97v-7.98m0-7.97v-7.98m0-7.97v-7.98m0-7.97v-7.97m0-7.98v-7.97m0-7.98v-7.97m0-7.98v-7.97m0-7.97v-7.98m0-7.97v-7.97m0-7.97v-7.98m0-7.97v-7.96m0-7.98v-7.97m0-8v-4.4h3.56m7.98 0h7.98m7.98 0h7.97m7.97 0h7.98m7.97 0h7.98m7.97 0h7.98m7.97 0h7.97m7.98 0h7.97m7.98 0h7.97m7.98 0h7.97m7.97 0h7.98m7.97 0h7.97m7.97 0h7.98m7.97 0h7.96m7.98 0h7.97m8 0h7.96m7.98 0h7.97m7.98 0h7.98m6.34-1.63v-7.98m0-7.98v-7.98m0-7.97v-4" stroke="#000" stroke-width="2" fill="none"/><path d="M579.97 1908.5h-2v-1.03h2z"/><path d="M860 1559.96l12.73 21.52h-25.46z" stroke="#000" stroke-width="2" fill="#fff"/><path d="M103.15 1918v-4.04m0-8.08v-8.08m0-8.1v-8.07m0-8.08v-8.08m0-8.08v-8.1m0-8.08v-8.08m0-8.08v-8.08m0-8.08v-8.1m0-8.07v-8.08m0-8.08v-8.08m0-8.1v-8.08m0-8.08v-8.08m0-8.08V1720m0-8.08v-8.1m0-8.07v-8.08m0-8.08v-8.1m0-8.08v-8.08m0-8.08v-8.08m0-8.08v-8.08m5.07-3.02h8.08m8.08 0h8.08m8.08 0h8.08m8.1 0h8.07m8.07 0h8.08m8.08 0h8.08m8.1 0h8.08m8.08 0h8.08m8.08 0h8.1m8.07 0h8.07m8.08 0h8.08m6.94-1.15v-8.08m0-8.08v-8.1m0-8.08v-4.04" stroke="#000" stroke-width="2" fill="none"/><path d="M104.15 1919h-2v-1.03h2z"/><path d="M284.87 1559.96l12.72 21.52h-25.46z" stroke="#000" stroke-width="2" fill="#fff"/><path d="M-120 1678v-4.04m0-8.07v-8.08m0-8.07v-8.07m0-8.07v-8.06m1.03-7.04h8.07m8.07 0h8.07m8.07 0h8.08m8.07 0h8.07m8.08 0h8.07m8.07 0h8.07m8.08 0h8.07m8.07 0H2.1m8.06 0h8.07m8.07 0h8.07m8.07 0h8.07m8.08 0h8.08m8.07 0h8.07m8.07 0h8.07m8.07 0h8.08m8.07 0h8.07m8.07 0h8.06m8.07 0h8.07m8.07 0h8.08m8.07 0h8.07m8.06 0h8.07m8.07 0h8.07m8.07 0h8.07m8.08 0h8.07m8.07 0h8.07m8.06 0h.3v-7.77m0-8.07v-8.07m0-8.08v-4.04" stroke="#000" stroke-width="2" fill="none"/><path d="M-119 1679h-2v-1.03h2z"/><path d="M284.87 1559.96l12.72 21.52h-25.46zM1340 1680h360v221h-360z" stroke="#000" stroke-width="2" fill="#fff"/><path d="M1340 1717.6h360m-360 59.1h360" stroke="#000" stroke-width="2" fill="none"/><g><use xlink:href="#F" transform="matrix(1,0,0,1,1348,1688) translate(127.05 14.6)"/></g><g><use xlink:href="#b" transform="matrix(1,0,0,1,1352,1725.6) translate(0 25.6)"/><use xlink:href="#G" transform="matrix(1,0,0,1,1352,1725.6) translate(10.95 25.6)"/><use xlink:href="#H" transform="matrix(1,0,0,1,1352,1725.6) translate(66.85000000000001 25.6)"/></g><g><use xlink:href="#g" transform="matrix(1,0,0,1,1352,1784.6999999999998) translate(0 25.19999999999999)"/><use xlink:href="#m" transform="matrix(1,0,0,1,1352,1784.6999999999998) translate(15.5 25.19999999999999)"/><use xlink:href="#d" transform="matrix(1,0,0,1,1352,1784.6999999999998) translate(120.10000000000001 25.19999999999999)"/><use xlink:href="#g" transform="matrix(1,0,0,1,1352,1784.6999999999998) translate(0 46.79999999999999)"/><use xlink:href="#n" transform="matrix(1,0,0,1,1352,1784.6999999999998) translate(15.5 46.79999999999999)"/><use xlink:href="#d" transform="matrix(1,0,0,1,1352,1784.6999999999998) translate(137.05 46.79999999999999)"/><use xlink:href="#g" transform="matrix(1,0,0,1,1352,1784.6999999999998) translate(0 68.39999999999999)"/><use xlink:href="#I" transform="matrix(1,0,0,1,1352,1784.6999999999998) translate(15.5 68.39999999999999)"/><use xlink:href="#J" transform="matrix(1,0,0,1,1352,1784.6999999999998) translate(143.25 68.39999999999999)"/><use xlink:href="#q" transform="matrix(1,0,0,1,1352,1784.6999999999998) translate(196.10000000000002 68.39999999999999)"/><use xlink:href="#g" transform="matrix(1,0,0,1,1352,1784.6999999999998) translate(0 90)"/><use xlink:href="#K" transform="matrix(1,0,0,1,1352,1784.6999999999998) translate(15.5 90)"/><use xlink:href="#J" transform="matrix(1,0,0,1,1352,1784.6999999999998) translate(178.14999999999998 90)"/><use xlink:href="#v" transform="matrix(1,0,0,1,1352,1784.6999999999998) translate(231 90)"/></g><path d="M1520 1678v-3.94m0-7.9v-7.88m0-7.9v-7.88m0-7.88v-7.9m0-7.88v-.34h-7.55m-7.9 0h-7.87m-7.9 0h-7.88m-7.9 0h-7.87m-7.9 0h-7.88m-7.9 0h-7.88m-7.88 0h-7.9m-7.9 0h-7.88m-7.9 0h-7.87m-7.9 0h-7.88m-7.9 0h-7.88m-7.9 0h-7.88m-7.9 0h-7.88m-7.9 0h-7.87m-7.37-.52v-7.9m0-7.88v-7.9m0-7.87v-3.95" stroke="#000" stroke-width="2" fill="none"/><path d="M1521 1679h-2v-1.03h2z"/><path d="M1300 1559.96l12.73 21.52h-25.46z" stroke="#000" stroke-width="2" fill="#fff"/><path d="M1545.6 1678v-4.08m0-8.15v-8.16m0-8.14v-8.16m0-8.16V1625m1.67-6.5h8.15m8.16 0h8.15m8.16 0h8.15m8.15 0h8.16m8.15 0h8.17m8.15 0h8.16m8.16 0h8.15m8.15 0h8.15m8.16 0h8.15m8.17 0h8.16m8.15 0h8.16m8.15 0h8.15m8.15 0h8.16m8.16 0h.68v-7.47m0-8.16v-8.15m0-8.16v-4.08" stroke="#000" stroke-width="2" fill="none"/><path d="M1546.6 1679h-2v-1.03h2z"/><path d="M1760 1559.96l12.73 21.52h-25.46zM1340 2220h360v177h-360z" stroke="#000" stroke-width="2" fill="#fff"/><path d="M1340 2257.6h360m-360 59.1h360" stroke="#000" stroke-width="2" fill="none"/><g><use xlink:href="#L" transform="matrix(1,0,0,1,1348,2228) translate(135.05 14.6)"/></g><g><use xlink:href="#g" transform="matrix(1,0,0,1,1352,2324.7) translate(0 25.299999999999997)"/><use xlink:href="#m" transform="matrix(1,0,0,1,1352,2324.7) translate(15.5 25.299999999999997)"/><use xlink:href="#d" transform="matrix(1,0,0,1,1352,2324.7) translate(120.10000000000001 25.299999999999997)"/><use xlink:href="#g" transform="matrix(1,0,0,1,1352,2324.7) translate(0 46.9)"/><use xlink:href="#n" transform="matrix(1,0,0,1,1352,2324.7) translate(15.5 46.9)"/><use xlink:href="#f" transform="matrix(1,0,0,1,1352,2324.7) translate(137.05 46.9)"/></g><path d="M1520 1932.75V1998" stroke="#000" stroke-width="2" fill="none"/><path d="M1520 1903.4l14.85 14.86-14.85 15.15-14.85-15.14z" stroke="#000" stroke-width="2"/><path d="M1521 1999h-2v-1.03h2z"/><path d="M1519.17 966.75v59h-746v88.75" stroke="#000" stroke-width="2" fill="none"/><path d="M1519.17 937.4l14.85 14.86-14.85 15.15-14.85-15.14z" stroke="#000" stroke-width="2" fill="#fff"/><path d="M774.16 1115.5h-2v-1.03h2z"/><path d="M140 1680h360v156H140z" stroke="#000" stroke-width="2" fill="#fff"/><path d="M140 1717.6h360m-360 59.1h360" stroke="#000" stroke-width="2" fill="none"/><g><use xlink:href="#M" transform="matrix(1,0,0,1,148,1688) translate(154.525 14.6)"/></g><g><use xlink:href="#g" transform="matrix(1,0,0,1,152,1784.6999999999998) translate(0 25.6)"/><use xlink:href="#m" transform="matrix(1,0,0,1,152,1784.6999999999998) translate(15.5 25.6)"/><use xlink:href="#f" transform="matrix(1,0,0,1,152,1784.6999999999998) translate(120.10000000000001 25.6)"/></g><path d="M284.87 1678v-3.98m0-7.96v-7.96m0-7.96v-7.96m0-7.96v-7.96m0-7.96v-7.96m0-7.96v-7.96m0-7.96v-3.98" stroke="#000" stroke-width="2" fill="none"/><path d="M285.87 1679h-2v-1.03h2z"/><path d="M284.87 1559.96l12.72 21.52h-25.46zM640 1680h360v156H640z" stroke="#000" stroke-width="2" fill="#fff"/><path d="M640 1717.6h360m-360 59.1h360" stroke="#000" stroke-width="2" fill="none"/><g><use xlink:href="#N" transform="matrix(1,0,0,1,648,1688) translate(143.575 14.6)"/></g><g><use xlink:href="#g" transform="matrix(1,0,0,1,652,1784.6999999999998) translate(0 25.6)"/><use xlink:href="#m" transform="matrix(1,0,0,1,652,1784.6999999999998) translate(15.5 25.6)"/><use xlink:href="#f" transform="matrix(1,0,0,1,652,1784.6999999999998) translate(120.10000000000001 25.6)"/></g><path d="M820 1678v-4.23m0-8.47v-8.47m0-8.47v-8.47m0-8.48v-8.47m4.02-4.45h8.47m8.46 0h8.47m8.47 0h2.1v-6.37m0-8.47v-8.47m0-8.48v-4.24" stroke="#000" stroke-width="2" fill="none"/><path d="M821 1679h-2v-1.03h2z"/><path d="M860 1559.96l12.73 21.52h-25.46zM880 1920h360v156H880z" stroke="#000" stroke-width="2" fill="#fff"/><path d="M880 1957.6h360m-360 59.1h360" stroke="#000" stroke-width="2" fill="none"/><g><use xlink:href="#O" transform="matrix(1,0,0,1,888,1928) translate(147.575 14.6)"/></g><g><use xlink:href="#g" transform="matrix(1,0,0,1,892,2024.6999999999998) translate(0 25.6)"/><use xlink:href="#m" transform="matrix(1,0,0,1,892,2024.6999999999998) translate(15.5 25.6)"/><use xlink:href="#f" transform="matrix(1,0,0,1,892,2024.6999999999998) translate(120.10000000000001 25.6)"/></g><path d="M1060 1918v-4.06m0-8.1v-8.12m0-8.12v-8.1m0-8.13v-8.1m0-8.12v-8.12m0-8.1v-8.13m0-8.1v-8.12m0-8.12v-8.1m0-8.13v-8.1m0-8.12v-8.1m0-8.12v-8.1m0-8.13v-8.1m0-8.13v-8.1m0-8.12v-8.12m0-8.1v-8.13m0-8.1v-8.12m0-8.12v-8.1m0-8.12v-8.1m0-8.12v-8.12m-6.27-1.84h-8.1m-8.13 0h-8.1m-8.13 0h-8.1m-8.12 0h-8.12m-8.1 0h-8.13m-8.1 0h-8.12m-8.12 0h-8.1m-8.13 0h-8.1m-8.12 0h-8.1m-8.12 0h-8.1m-8.13 0h-8.1m-8.13 0h-8.1m-7.12-1v-8.12m0-8.1v-8.13m0-8.1v-4.07" stroke="#000" stroke-width="2" fill="none"/><path d="M1061 1919h-2v-1.03h2z"/><path d="M860 1559.96l12.73 21.52h-25.46zM530 106.5h360v276H530z" stroke="#000" stroke-width="2" fill="#fff"/><path d="M530 165.7h360" stroke="#000" stroke-width="2" fill="none"/><g><use xlink:href="#P" transform="matrix(1,0,0,1,538,114.49999999999983) translate(113.57499999999999 14.799999999999999)"/><use xlink:href="#Q" transform="matrix(1,0,0,1,538,114.49999999999983) translate(127.57499999999999 36.4)"/></g><g><use xlink:href="#g" transform="matrix(1,0,0,1,542,173.69999999999982) translate(0 28.500000000000007)"/><use xlink:href="#j" transform="matrix(1,0,0,1,542,173.69999999999982) translate(15.5 28.500000000000007)"/><use xlink:href="#k" transform="matrix(1,0,0,1,542,173.69999999999982) translate(73.4 28.500000000000007)"/><use xlink:href="#g" transform="matrix(1,0,0,1,542,173.69999999999982) translate(0 50.10000000000001)"/><use xlink:href="#l" transform="matrix(1,0,0,1,542,173.69999999999982) translate(15.5 50.10000000000001)"/><use xlink:href="#d" transform="matrix(1,0,0,1,542,173.69999999999982) translate(77.4 50.10000000000001)"/><use xlink:href="#g" transform="matrix(1,0,0,1,542,173.69999999999982) translate(0 71.70000000000002)"/><use xlink:href="#m" transform="matrix(1,0,0,1,542,173.69999999999982) translate(15.5 71.70000000000002)"/><use xlink:href="#d" transform="matrix(1,0,0,1,542,173.69999999999982) translate(120.10000000000001 71.70000000000002)"/><use xlink:href="#g" transform="matrix(1,0,0,1,542,173.69999999999982) translate(0 93.30000000000003)"/><use xlink:href="#n" transform="matrix(1,0,0,1,542,173.69999999999982) translate(15.5 93.30000000000003)"/><use xlink:href="#d" transform="matrix(1,0,0,1,542,173.69999999999982) translate(137.05 93.30000000000003)"/><use xlink:href="#g" transform="matrix(1,0,0,1,542,173.69999999999982) translate(0 114.90000000000002)"/><use xlink:href="#o" transform="matrix(1,0,0,1,542,173.69999999999982) translate(15.5 114.90000000000002)"/><use xlink:href="#p" transform="matrix(1,0,0,1,542,173.69999999999982) translate(133.35000000000002 114.90000000000002)"/><use xlink:href="#q" transform="matrix(1,0,0,1,542,173.69999999999982) translate(183.20000000000002 114.90000000000002)"/><use xlink:href="#g" transform="matrix(1,0,0,1,542,173.69999999999982) translate(0 136.5)"/><use xlink:href="#R" transform="matrix(1,0,0,1,542,173.69999999999982) translate(15.5 136.5)"/><use xlink:href="#p" transform="matrix(1,0,0,1,542,173.69999999999982) translate(164.25 136.5)"/><use xlink:href="#q" transform="matrix(1,0,0,1,542,173.69999999999982) translate(214.1 136.5)"/><use xlink:href="#g" transform="matrix(1,0,0,1,542,173.69999999999982) translate(0 158.1)"/><use xlink:href="#s" transform="matrix(1,0,0,1,542,173.69999999999982) translate(15.5 158.1)"/><use xlink:href="#q" transform="matrix(1,0,0,1,542,173.69999999999982) translate(76.30000000000001 158.1)"/><use xlink:href="#g" transform="matrix(1,0,0,1,542,173.69999999999982) translate(0 179.70000000000002)"/><use xlink:href="#t" transform="matrix(1,0,0,1,542,173.69999999999982) translate(15.5 179.70000000000002)"/><use xlink:href="#u" transform="matrix(1,0,0,1,542,173.69999999999982) translate(160.3 179.70000000000002)"/><use xlink:href="#v" transform="matrix(1,0,0,1,542,173.69999999999982) translate(225.15000000000003 179.70000000000002)"/></g><path d="M1440 157.78h360v200h-360z" stroke="#000" stroke-width="2" fill="#fff"/><path d="M1440 216.98h360" stroke="#000" stroke-width="2" fill="none"/><g><use xlink:href="#P" transform="matrix(1,0,0,1,1448,165.77800829875514) translate(113.57499999999999 14.799999999999999)"/><use xlink:href="#S" transform="matrix(1,0,0,1,1448,165.77800829875514) translate(102.125 36.4)"/></g><g><use xlink:href="#g" transform="matrix(1,0,0,1,1452,224.97800829875513) translate(0 33.69999999999999)"/><use xlink:href="#I" transform="matrix(1,0,0,1,1452,224.97800829875513) translate(15.5 33.69999999999999)"/><use xlink:href="#J" transform="matrix(1,0,0,1,1452,224.97800829875513) translate(143.25 33.69999999999999)"/><use xlink:href="#q" transform="matrix(1,0,0,1,1452,224.97800829875513) translate(196.10000000000002 33.69999999999999)"/><use xlink:href="#g" transform="matrix(1,0,0,1,1452,224.97800829875513) translate(0 55.29999999999999)"/><use xlink:href="#K" transform="matrix(1,0,0,1,1452,224.97800829875513) translate(15.5 55.29999999999999)"/><use xlink:href="#J" transform="matrix(1,0,0,1,1452,224.97800829875513) translate(178.14999999999998 55.29999999999999)"/><use xlink:href="#q" transform="matrix(1,0,0,1,1452,224.97800829875513) translate(231 55.29999999999999)"/><use xlink:href="#g" transform="matrix(1,0,0,1,1452,224.97800829875513) translate(0 76.89999999999999)"/><use xlink:href="#A" transform="matrix(1,0,0,1,1452,224.97800829875513) translate(15.5 76.89999999999999)"/><use xlink:href="#p" transform="matrix(1,0,0,1,1452,224.97800829875513) translate(195.2 76.89999999999999)"/><use xlink:href="#q" transform="matrix(1,0,0,1,1452,224.97800829875513) translate(245.04999999999998 76.89999999999999)"/><use xlink:href="#g" transform="matrix(1,0,0,1,1452,224.97800829875513) translate(0 98.5)"/><use xlink:href="#B" transform="matrix(1,0,0,1,1452,224.97800829875513) translate(15.5 98.5)"/><use xlink:href="#p" transform="matrix(1,0,0,1,1452,224.97800829875513) translate(230.09999999999997 98.5)"/><use xlink:href="#v" transform="matrix(1,0,0,1,1452,224.97800829875513) translate(279.95 98.5)"/></g><path d="M452.2 1116.5h360v125h-360z" stroke="#000" stroke-width="2" fill="#fff"/><path d="M452.2 1175.7h360" stroke="#000" stroke-width="2" fill="none"/><g><use xlink:href="#P" transform="matrix(1,0,0,1,460.1964392391526,1124.5) translate(113.57499999999999 14.799999999999999)"/><use xlink:href="#T" transform="matrix(1,0,0,1,460.1964392391526,1124.5) translate(151.025 36.4)"/></g><path d="M1377.1 1116.5h360v125h-360z" stroke="#000" stroke-width="2" fill="#fff"/><path d="M1377.1 1175.7h360" stroke="#000" stroke-width="2" fill="none"/><g><use xlink:href="#P" transform="matrix(1,0,0,1,1385.0876063666558,1124.5) translate(113.57499999999999 14.799999999999999)"/><use xlink:href="#U" transform="matrix(1,0,0,1,1385.0876063666558,1124.5) translate(118.07499999999999 36.4)"/></g><path d="M104.87 1432h360v125h-360z" stroke="#000" stroke-width="2" fill="#fff"/><path d="M104.87 1491.2h360" stroke="#000" stroke-width="2" fill="none"/><g><use xlink:href="#P" transform="matrix(1,0,0,1,112.86505597773589,1440) translate(113.57499999999999 14.799999999999999)"/><use xlink:href="#V" transform="matrix(1,0,0,1,112.86505597773589,1440) translate(123.6 36.4)"/></g><g><use xlink:href="#g" transform="matrix(1,0,0,1,116.86505597773589,1499.2) translate(0 28.6)"/><use xlink:href="#m" transform="matrix(1,0,0,1,116.86505597773589,1499.2) translate(15.5 28.6)"/><use xlink:href="#f" transform="matrix(1,0,0,1,116.86505597773589,1499.2) translate(120.10000000000001 28.6)"/></g><path d="M680 1432h360v125H680z" stroke="#000" stroke-width="2" fill="#fff"/><path d="M680 1491.2h360" stroke="#000" stroke-width="2" fill="none"/><g><use xlink:href="#P" transform="matrix(1,0,0,1,688,1440) translate(113.57499999999999 14.799999999999999)"/><use xlink:href="#W" transform="matrix(1,0,0,1,688,1440) translate(116.1 36.4)"/></g><g><use xlink:href="#g" transform="matrix(1,0,0,1,692,1499.2) translate(0 28.6)"/><use xlink:href="#n" transform="matrix(1,0,0,1,692,1499.2) translate(15.5 28.6)"/><use xlink:href="#f" transform="matrix(1,0,0,1,692,1499.2) translate(137.05 28.6)"/></g><path d="M1120 1432h360v125h-360z" stroke="#000" stroke-width="2" fill="#fff"/><path d="M1120 1491.2h360" stroke="#000" stroke-width="2" fill="none"/><g><use xlink:href="#P" transform="matrix(1,0,0,1,1128,1440) translate(113.57499999999999 14.799999999999999)"/><use xlink:href="#X" transform="matrix(1,0,0,1,1128,1440) translate(90.65 36.4)"/></g><g><use xlink:href="#g" transform="matrix(1,0,0,1,1132,1499.2) translate(0 28.6)"/><use xlink:href="#m" transform="matrix(1,0,0,1,1132,1499.2) translate(15.5 28.6)"/><use xlink:href="#f" transform="matrix(1,0,0,1,1132,1499.2) translate(120.10000000000001 28.6)"/></g><path d="M1580 1432h360v125h-360z" stroke="#000" stroke-width="2" fill="#fff"/><path d="M1580 1491.2h360" stroke="#000" stroke-width="2" fill="none"/><g><use xlink:href="#P" transform="matrix(1,0,0,1,1588,1440) translate(113.57499999999999 14.799999999999999)"/><use xlink:href="#Y" transform="matrix(1,0,0,1,1588,1440) translate(83.15 36.4)"/></g><g><use xlink:href="#g" transform="matrix(1,0,0,1,1592,1499.2) translate(0 28.6)"/><use xlink:href="#n" transform="matrix(1,0,0,1,1592,1499.2) translate(15.5 28.6)"/><use xlink:href="#f" transform="matrix(1,0,0,1,1592,1499.2) translate(137.05 28.6)"/></g><path d="M1340 2000h360v147h-360z" stroke="#000" stroke-width="2" fill="#fff"/><path d="M1340 2059.2h360" stroke="#000" stroke-width="2" fill="none"/><g><use xlink:href="#P" transform="matrix(1,0,0,1,1348,2008) translate(113.57499999999999 14.799999999999999)"/><use xlink:href="#Z" transform="matrix(1,0,0,1,1348,2008) translate(148.025 36.4)"/></g><g><use xlink:href="#g" transform="matrix(1,0,0,1,1352,2067.2) translate(0 28.799999999999997)"/><use xlink:href="#m" transform="matrix(1,0,0,1,1352,2067.2) translate(15.5 28.799999999999997)"/><use xlink:href="#d" transform="matrix(1,0,0,1,1352,2067.2) translate(120.10000000000001 28.799999999999997)"/><use xlink:href="#g" transform="matrix(1,0,0,1,1352,2067.2) translate(0 50.4)"/><use xlink:href="#n" transform="matrix(1,0,0,1,1352,2067.2) translate(15.5 50.4)"/><use xlink:href="#f" transform="matrix(1,0,0,1,1352,2067.2) translate(137.05 50.4)"/></g><path d="M1520 2218v-3.8m0-7.58v-7.6m0-7.57v-7.6m0-7.57v-3.8" stroke="#000" stroke-width="2" fill="none"/><path d="M1521 2219h-2v-1.03h2z"/><path d="M1520 2149.96l12.73 21.52h-25.46z" stroke="#000" stroke-width="2" fill="#fff"/><defs><path d="M205 0l-28-72H64L36 0H1l101-248h38L239 0h-34zm-38-99l-47-123c-12 45-31 82-46 123h93" id="aa"/><path d="M114-163C36-179 61-72 57 0H25l-1-190h30c1 12-1 29 2 39 6-27 23-49 58-41v29" id="ab"/><path d="M96-169c-40 0-48 33-48 73s9 75 48 75c24 0 41-14 43-38l32 2c-6 37-31 61-74 61-59 0-76-41-82-99-10-93 101-131 147-64 4 7 5 14 7 22l-32 3c-4-21-16-35-41-35" id="ac"/><path d="M106-169C34-169 62-67 57 0H25v-261h32l-1 103c12-21 28-36 61-36 89 0 53 116 60 194h-32v-121c2-32-8-49-39-48" id="ad"/><path d="M100-194c63 0 86 42 84 106H49c0 40 14 67 53 68 26 1 43-12 49-29l28 8c-11 28-37 45-77 45C44 4 14-33 15-96c1-61 26-98 85-98zm52 81c6-60-76-77-97-28-3 7-6 17-6 28h103" id="ae"/><g id="a"><use transform="matrix(0.05,0,0,0.05,0,0)" xlink:href="#aa"/><use transform="matrix(0.05,0,0,0.05,12,0)" xlink:href="#ab"/><use transform="matrix(0.05,0,0,0.05,17.95,0)" xlink:href="#ac"/><use transform="matrix(0.05,0,0,0.05,26.950000000000003,0)" xlink:href="#ad"/><use transform="matrix(0.05,0,0,0.05,36.95,0)" xlink:href="#ae"/><use transform="matrix(0.05,0,0,0.05,46.95,0)" xlink:href="#ab"/></g><path d="M16-82v-28h88v28H16" id="af"/><use transform="matrix(0.05,0,0,0.05,0,0)" xlink:href="#af" id="b"/><path d="M141-36C126-15 110 5 73 4 37 3 15-17 15-53c-1-64 63-63 125-63 3-35-9-54-41-54-24 1-41 7-42 31l-33-3c5-37 33-52 76-52 45 0 72 20 72 64v82c-1 20 7 32 28 27v20c-31 9-61-2-59-35zM48-53c0 20 12 33 32 33 41-3 63-29 60-74-43 2-92-5-92 41" id="ag"/><path d="M24 0v-261h32V0H24" id="ah"/><path d="M59-47c-2 24 18 29 38 22v24C64 9 27 4 27-40v-127H5v-23h24l9-43h21v43h35v23H59v120" id="ai"/><path d="M33-154v-36h34v36H33zM33 0v-36h34V0H33" id="aj"/><g id="c"><use transform="matrix(0.05,0,0,0.05,0,0)" xlink:href="#ad"/><use transform="matrix(0.05,0,0,0.05,10,0)" xlink:href="#ae"/><use transform="matrix(0.05,0,0,0.05,20,0)" xlink:href="#ag"/><use transform="matrix(0.05,0,0,0.05,30,0)" xlink:href="#ah"/><use transform="matrix(0.05,0,0,0.05,33.95,0)" xlink:href="#ai"/><use transform="matrix(0.05,0,0,0.05,38.95,0)" xlink:href="#ad"/><use transform="matrix(0.05,0,0,0.05,48.95,0)" xlink:href="#aj"/></g><path d="M24-231v-30h32v30H24zM24 0v-190h32V0H24" id="ak"/><path d="M117-194c89-4 53 116 60 194h-32v-121c0-31-8-49-39-48C34-167 62-67 57 0H25l-1-190h30c1 10-1 24 2 32 11-22 29-35 61-36" id="al"/><g id="d"><use transform="matrix(0.05,0,0,0.05,0,0)" xlink:href="#ak"/><use transform="matrix(0.05,0,0,0.05,3.95,0)" xlink:href="#al"/><use transform="matrix(0.05,0,0,0.05,13.949999999999998,0)" xlink:href="#ai"/></g><path d="M210-169c-67 3-38 105-44 169h-31v-121c0-29-5-50-35-48C34-165 62-65 56 0H25l-1-190h30c1 10-1 24 2 32 10-44 99-50 107 0 11-21 27-35 58-36 85-2 47 119 55 194h-31v-121c0-29-5-49-35-48" id="am"/><path d="M135-143c-3-34-86-38-87 0 15 53 115 12 119 90S17 21 10-45l28-5c4 36 97 45 98 0-10-56-113-15-118-90-4-57 82-63 122-42 12 7 21 19 24 35" id="an"/><g id="e"><use transform="matrix(0.05,0,0,0.05,0,0)" xlink:href="#ak"/><use transform="matrix(0.05,0,0,0.05,3.95,0)" xlink:href="#ai"/><use transform="matrix(0.05,0,0,0.05,8.95,0)" xlink:href="#ae"/><use transform="matrix(0.05,0,0,0.05,18.95,0)" xlink:href="#am"/><use transform="matrix(0.05,0,0,0.05,33.9,0)" xlink:href="#an"/><use transform="matrix(0.05,0,0,0.05,42.9,0)" xlink:href="#aj"/></g><g id="f"><use transform="matrix(0.05,0,0,0.05,0,0)" xlink:href="#ak"/><use transform="matrix(0.05,0,0,0.05,3.95,0)" xlink:href="#al"/><use transform="matrix(0.05,0,0,0.05,13.949999999999998,0)" xlink:href="#ai"/></g><path d="M118-107v75H92v-75H18v-26h74v-75h26v75h74v26h-74" id="ao"/><use transform="matrix(0.05,0,0,0.05,0,0)" xlink:href="#ao" id="g"/><path d="M87 75C49 33 22-17 22-94c0-76 28-126 65-167h31c-38 41-64 92-64 168S80 34 118 75H87" id="ap"/><path d="M177-190C167-65 218 103 67 71c-23-6-38-20-44-43l32-5c15 47 100 32 89-28v-30C133-14 115 1 83 1 29 1 15-40 15-95c0-56 16-97 71-98 29-1 48 16 59 35 1-10 0-23 2-32h30zM94-22c36 0 50-32 50-73 0-42-14-75-50-75-39 0-46 34-46 75s6 73 46 73" id="aq"/><g id="h"><use transform="matrix(0.05,0,0,0.05,0,0)" xlink:href="#aa"/><use transform="matrix(0.05,0,0,0.05,12,0)" xlink:href="#ab"/><use transform="matrix(0.05,0,0,0.05,17.95,0)" xlink:href="#ac"/><use transform="matrix(0.05,0,0,0.05,26.950000000000003,0)" xlink:href="#ad"/><use transform="matrix(0.05,0,0,0.05,36.95,0)" xlink:href="#ae"/><use transform="matrix(0.05,0,0,0.05,46.95,0)" xlink:href="#ab"/><use transform="matrix(0.05,0,0,0.05,52.900000000000006,0)" xlink:href="#ap"/><use transform="matrix(0.05,0,0,0.05,58.85,0)" xlink:href="#an"/><use transform="matrix(0.05,0,0,0.05,67.85000000000001,0)" xlink:href="#ai"/><use transform="matrix(0.05,0,0,0.05,72.85000000000001,0)" xlink:href="#ab"/><use transform="matrix(0.05,0,0,0.05,78.80000000000001,0)" xlink:href="#ak"/><use transform="matrix(0.05,0,0,0.05,82.75000000000001,0)" xlink:href="#al"/><use transform="matrix(0.05,0,0,0.05,92.75000000000001,0)" xlink:href="#aq"/></g><path d="M33-261c38 41 65 92 65 168S71 34 33 75H2C39 34 66-17 66-93S39-220 2-261h31" id="ar"/><g id="i"><use transform="matrix(0.05,0,0,0.05,0,0)" xlink:href="#al"/><use transform="matrix(0.05,0,0,0.05,10,0)" xlink:href="#ag"/><use transform="matrix(0.05,0,0,0.05,20,0)" xlink:href="#am"/><use transform="matrix(0.05,0,0,0.05,34.95,0)" xlink:href="#ae"/><use transform="matrix(0.05,0,0,0.05,44.95,0)" xlink:href="#ar"/></g><path d="M190 0L58-211 59 0H30v-248h39L202-35l-2-213h31V0h-41" id="as"/><g id="j"><use transform="matrix(0.05,0,0,0.05,0,0)" xlink:href="#as"/><use transform="matrix(0.05,0,0,0.05,12.950000000000001,0)" xlink:href="#ag"/><use transform="matrix(0.05,0,0,0.05,22.950000000000003,0)" xlink:href="#am"/><use transform="matrix(0.05,0,0,0.05,37.900000000000006,0)" xlink:href="#ae"/><use transform="matrix(0.05,0,0,0.05,47.900000000000006,0)" xlink:href="#aj"/></g><g id="k"><use transform="matrix(0.05,0,0,0.05,0,0)" xlink:href="#an"/><use transform="matrix(0.05,0,0,0.05,9,0)" xlink:href="#ai"/><use transform="matrix(0.05,0,0,0.05,14,0)" xlink:href="#ab"/><use transform="matrix(0.05,0,0,0.05,19.95,0)" xlink:href="#ak"/><use transform="matrix(0.05,0,0,0.05,23.9,0)" xlink:href="#al"/><use transform="matrix(0.05,0,0,0.05,33.9,0)" xlink:href="#aq"/></g><path d="M197 0v-115H63V0H30v-248h33v105h134v-105h34V0h-34" id="at"/><g id="l"><use transform="matrix(0.05,0,0,0.05,0,0)" xlink:href="#at"/><use transform="matrix(0.05,0,0,0.05,12.950000000000001,0)" xlink:href="#ae"/><use transform="matrix(0.05,0,0,0.05,22.950000000000003,0)" xlink:href="#ag"/><use transform="matrix(0.05,0,0,0.05,32.95,0)" xlink:href="#ah"/><use transform="matrix(0.05,0,0,0.05,36.900000000000006,0)" xlink:href="#ai"/><use transform="matrix(0.05,0,0,0.05,41.900000000000006,0)" xlink:href="#ad"/><use transform="matrix(0.05,0,0,0.05,51.900000000000006,0)" xlink:href="#aj"/></g><path d="M143 0L79-87 56-68V0H24v-261h32v163l83-92h37l-77 82L181 0h-38" id="au"/><path d="M137 0h-34L2-248h35l83 218 83-218h36" id="av"/><path d="M84 4C-5 8 30-112 23-190h32v120c0 31 7 50 39 49 72-2 45-101 50-169h31l1 190h-30c-1-10 1-25-2-33-11 22-28 36-60 37" id="aw"/><g id="m"><use transform="matrix(0.05,0,0,0.05,0,0)" xlink:href="#aa"/><use transform="matrix(0.05,0,0,0.05,12,0)" xlink:href="#ai"/><use transform="matrix(0.05,0,0,0.05,17,0)" xlink:href="#ai"/><use transform="matrix(0.05,0,0,0.05,22,0)" xlink:href="#ag"/><use transform="matrix(0.05,0,0,0.05,32,0)" xlink:href="#ac"/><use transform="matrix(0.05,0,0,0.05,41,0)" xlink:href="#au"/><use transform="matrix(0.05,0,0,0.05,50,0)" xlink:href="#av"/><use transform="matrix(0.05,0,0,0.05,60.650000000000006,0)" xlink:href="#ag"/><use transform="matrix(0.05,0,0,0.05,70.65,0)" xlink:href="#ah"/><use transform="matrix(0.05,0,0,0.05,74.60000000000001,0)" xlink:href="#aw"/><use transform="matrix(0.05,0,0,0.05,84.60000000000001,0)" xlink:href="#ae"/><use transform="matrix(0.05,0,0,0.05,94.60000000000001,0)" xlink:href="#aj"/></g><path d="M30-248c118-7 216 8 213 122C240-48 200 0 122 0H30v-248zM63-27c89 8 146-16 146-99s-60-101-146-95v194" id="ax"/><path d="M101-234c-31-9-42 10-38 44h38v23H63V0H32v-167H5v-23h27c-7-52 17-82 69-68v24" id="ay"/><g id="n"><use transform="matrix(0.05,0,0,0.05,0,0)" xlink:href="#ax"/><use transform="matrix(0.05,0,0,0.05,12.950000000000001,0)" xlink:href="#ae"/><use transform="matrix(0.05,0,0,0.05,22.950000000000003,0)" xlink:href="#ay"/><use transform="matrix(0.05,0,0,0.05,27.950000000000003,0)" xlink:href="#ae"/><use transform="matrix(0.05,0,0,0.05,37.95,0)" xlink:href="#al"/><use transform="matrix(0.05,0,0,0.05,47.95,0)" xlink:href="#an"/><use transform="matrix(0.05,0,0,0.05,56.95,0)" xlink:href="#ae"/><use transform="matrix(0.05,0,0,0.05,66.95,0)" xlink:href="#av"/><use transform="matrix(0.05,0,0,0.05,77.60000000000001,0)" xlink:href="#ag"/><use transform="matrix(0.05,0,0,0.05,87.60000000000001,0)" xlink:href="#ah"/><use transform="matrix(0.05,0,0,0.05,91.55000000000001,0)" xlink:href="#aw"/><use transform="matrix(0.05,0,0,0.05,101.55000000000001,0)" xlink:href="#ae"/><use transform="matrix(0.05,0,0,0.05,111.55000000000001,0)" xlink:href="#aj"/></g><path d="M85-194c31 0 48 13 60 33l-1-100h32l1 261h-30c-2-10 0-23-3-31C134-8 116 4 85 4 32 4 16-35 15-94c0-66 23-100 70-100zm9 24c-40 0-46 34-46 75 0 40 6 74 45 74 42 0 51-32 51-76 0-42-9-74-50-73" id="az"/><path d="M33 0v-248h34V0H33" id="aA"/><g id="o"><use transform="matrix(0.05,0,0,0.05,0,0)" xlink:href="#aa"/><use transform="matrix(0.05,0,0,0.05,12,0)" xlink:href="#az"/><use transform="matrix(0.05,0,0,0.05,22,0)" xlink:href="#az"/><use transform="matrix(0.05,0,0,0.05,32,0)" xlink:href="#aA"/><use transform="matrix(0.05,0,0,0.05,37,0)" xlink:href="#ai"/><use transform="matrix(0.05,0,0,0.05,42,0)" xlink:href="#ae"/><use transform="matrix(0.05,0,0,0.05,52,0)" xlink:href="#am"/><use transform="matrix(0.05,0,0,0.05,66.95,0)" xlink:href="#ap"/><use transform="matrix(0.05,0,0,0.05,72.9,0)" xlink:href="#aA"/><use transform="matrix(0.05,0,0,0.05,77.9,0)" xlink:href="#aA"/><use transform="matrix(0.05,0,0,0.05,82.9,0)" xlink:href="#ai"/><use transform="matrix(0.05,0,0,0.05,87.9,0)" xlink:href="#ae"/><use transform="matrix(0.05,0,0,0.05,97.9,0)" xlink:href="#am"/></g><g id="p"><use transform="matrix(0.05,0,0,0.05,0,0)" xlink:href="#ak"/><use transform="matrix(0.05,0,0,0.05,3.95,0)" xlink:href="#ai"/><use transform="matrix(0.05,0,0,0.05,8.95,0)" xlink:href="#ae"/><use transform="matrix(0.05,0,0,0.05,18.95,0)" xlink:href="#am"/><use transform="matrix(0.05,0,0,0.05,33.9,0)" xlink:href="#ar"/><use transform="matrix(0.05,0,0,0.05,39.85,0)" xlink:href="#aj"/></g><path d="M108 0H70L1-190h34L89-25l56-165h34" id="aB"/><path d="M100-194c62-1 85 37 85 99 1 63-27 99-86 99S16-35 15-95c0-66 28-99 85-99zM99-20c44 1 53-31 53-75 0-43-8-75-51-75s-53 32-53 75 10 74 51 75" id="aC"/><g id="q"><use transform="matrix(0.05,0,0,0.05,0,0)" xlink:href="#aB"/><use transform="matrix(0.05,0,0,0.05,9,0)" xlink:href="#aC"/><use transform="matrix(0.05,0,0,0.05,19,0)" xlink:href="#ak"/><use transform="matrix(0.05,0,0,0.05,22.95,0)" xlink:href="#az"/></g><path d="M233-177c-1 41-23 64-60 70L243 0h-38l-65-103H63V0H30v-248c88 3 205-21 203 71zM63-129c60-2 137 13 137-47 0-61-80-42-137-45v92" id="aD"/><g id="r"><use transform="matrix(0.05,0,0,0.05,0,0)" xlink:href="#aD"/><use transform="matrix(0.05,0,0,0.05,12.950000000000001,0)" xlink:href="#ae"/><use transform="matrix(0.05,0,0,0.05,22.950000000000003,0)" xlink:href="#am"/><use transform="matrix(0.05,0,0,0.05,37.900000000000006,0)" xlink:href="#aC"/><use transform="matrix(0.05,0,0,0.05,47.900000000000006,0)" xlink:href="#aB"/><use transform="matrix(0.05,0,0,0.05,56.900000000000006,0)" xlink:href="#ae"/><use transform="matrix(0.05,0,0,0.05,66.9,0)" xlink:href="#aA"/><use transform="matrix(0.05,0,0,0.05,71.9,0)" xlink:href="#ai"/><use transform="matrix(0.05,0,0,0.05,76.9,0)" xlink:href="#ae"/><use transform="matrix(0.05,0,0,0.05,86.9,0)" xlink:href="#am"/><use transform="matrix(0.05,0,0,0.05,101.85000000000001,0)" xlink:href="#ap"/><use transform="matrix(0.05,0,0,0.05,107.80000000000001,0)" xlink:href="#aA"/><use transform="matrix(0.05,0,0,0.05,112.80000000000001,0)" xlink:href="#aA"/><use transform="matrix(0.05,0,0,0.05,117.80000000000001,0)" xlink:href="#ai"/><use transform="matrix(0.05,0,0,0.05,122.80000000000001,0)" xlink:href="#ae"/><use transform="matrix(0.05,0,0,0.05,132.8,0)" xlink:href="#am"/></g><path d="M212-179c-10-28-35-45-73-45-59 0-87 40-87 99 0 60 29 101 89 101 43 0 62-24 78-52l27 14C228-24 195 4 139 4 59 4 22-46 18-125c-6-104 99-153 187-111 19 9 31 26 39 46" id="aE"/><g id="s"><use transform="matrix(0.05,0,0,0.05,0,0)" xlink:href="#aE"/><use transform="matrix(0.05,0,0,0.05,12.950000000000001,0)" xlink:href="#aw"/><use transform="matrix(0.05,0,0,0.05,22.950000000000003,0)" xlink:href="#ab"/><use transform="matrix(0.05,0,0,0.05,28.900000000000002,0)" xlink:href="#ae"/><use transform="matrix(0.05,0,0,0.05,38.900000000000006,0)" xlink:href="#ap"/><use transform="matrix(0.05,0,0,0.05,44.85000000000001,0)" xlink:href="#ar"/><use transform="matrix(0.05,0,0,0.05,50.80000000000001,0)" xlink:href="#aj"/></g><g id="t"><use transform="matrix(0.05,0,0,0.05,0,0)" xlink:href="#aD"/><use transform="matrix(0.05,0,0,0.05,12.950000000000001,0)" xlink:href="#ae"/><use transform="matrix(0.05,0,0,0.05,22.950000000000003,0)" xlink:href="#ac"/><use transform="matrix(0.05,0,0,0.05,31.950000000000003,0)" xlink:href="#ae"/><use transform="matrix(0.05,0,0,0.05,41.95,0)" xlink:href="#ak"/><use transform="matrix(0.05,0,0,0.05,45.900000000000006,0)" xlink:href="#aB"/><use transform="matrix(0.05,0,0,0.05,54.900000000000006,0)" xlink:href="#ae"/><use transform="matrix(0.05,0,0,0.05,64.9,0)" xlink:href="#aa"/><use transform="matrix(0.05,0,0,0.05,76.9,0)" xlink:href="#ai"/><use transform="matrix(0.05,0,0,0.05,81.9,0)" xlink:href="#ai"/><use transform="matrix(0.05,0,0,0.05,86.9,0)" xlink:href="#ag"/><use transform="matrix(0.05,0,0,0.05,96.9,0)" xlink:href="#ac"/><use transform="matrix(0.05,0,0,0.05,105.9,0)" xlink:href="#au"/><use transform="matrix(0.05,0,0,0.05,114.9,0)" xlink:href="#ap"/><use transform="matrix(0.05,0,0,0.05,120.85000000000001,0)" xlink:href="#ak"/><use transform="matrix(0.05,0,0,0.05,124.80000000000001,0)" xlink:href="#al"/><use transform="matrix(0.05,0,0,0.05,134.8,0)" xlink:href="#ai"/></g><path d="M115-194c55 1 70 41 70 98S169 2 115 4C84 4 66-9 55-30l1 105H24l-1-265h31l2 30c10-21 28-34 59-34zm-8 174c40 0 45-34 45-75s-6-73-45-74c-42 0-51 32-51 76 0 43 10 73 51 73" id="aF"/><path d="M206 0h-36l-40-164L89 0H53L-1-190h32L70-26l43-164h34l41 164 42-164h31" id="aG"/><g id="u"><use transform="matrix(0.05,0,0,0.05,0,0)" xlink:href="#aF"/><use transform="matrix(0.05,0,0,0.05,10,0)" xlink:href="#aC"/><use transform="matrix(0.05,0,0,0.05,20,0)" xlink:href="#aG"/><use transform="matrix(0.05,0,0,0.05,32.95,0)" xlink:href="#ae"/><use transform="matrix(0.05,0,0,0.05,42.95,0)" xlink:href="#ab"/><use transform="matrix(0.05,0,0,0.05,48.900000000000006,0)" xlink:href="#ar"/><use transform="matrix(0.05,0,0,0.05,54.85,0)" xlink:href="#aj"/></g><g id="v"><use transform="matrix(0.05,0,0,0.05,0,0)" xlink:href="#aB"/><use transform="matrix(0.05,0,0,0.05,9,0)" xlink:href="#aC"/><use transform="matrix(0.05,0,0,0.05,19,0)" xlink:href="#ak"/><use transform="matrix(0.05,0,0,0.05,22.95,0)" xlink:href="#az"/></g><g id="w"><use transform="matrix(0.05,0,0,0.05,0,0)" xlink:href="#ax"/><use transform="matrix(0.05,0,0,0.05,12.950000000000001,0)" xlink:href="#aG"/><use transform="matrix(0.05,0,0,0.05,25.900000000000002,0)" xlink:href="#ag"/><use transform="matrix(0.05,0,0,0.05,35.900000000000006,0)" xlink:href="#ab"/><use transform="matrix(0.05,0,0,0.05,41.85000000000001,0)" xlink:href="#ay"/></g><path d="M194 0L95-120 63-95V0H30v-248h33v124l119-124h40L117-140 236 0h-42" id="aH"/><g id="x"><use transform="matrix(0.05,0,0,0.05,0,0)" xlink:href="#aH"/><use transform="matrix(0.05,0,0,0.05,12,0)" xlink:href="#al"/><use transform="matrix(0.05,0,0,0.05,22,0)" xlink:href="#ak"/><use transform="matrix(0.05,0,0,0.05,25.950000000000003,0)" xlink:href="#aq"/><use transform="matrix(0.05,0,0,0.05,35.95,0)" xlink:href="#ad"/><use transform="matrix(0.05,0,0,0.05,45.95,0)" xlink:href="#ai"/></g><path d="M266 0h-40l-56-210L115 0H75L2-248h35L96-30l15-64 43-154h32l59 218 59-218h35" id="aI"/><path d="M9 0v-24l116-142H16v-24h144v24L44-24h123V0H9" id="aJ"/><g id="y"><use transform="matrix(0.05,0,0,0.05,0,0)" xlink:href="#aI"/><use transform="matrix(0.05,0,0,0.05,16.95,0)" xlink:href="#ak"/><use transform="matrix(0.05,0,0,0.05,20.9,0)" xlink:href="#aJ"/><use transform="matrix(0.05,0,0,0.05,29.899999999999995,0)" xlink:href="#ag"/><use transform="matrix(0.05,0,0,0.05,39.9,0)" xlink:href="#ab"/><use transform="matrix(0.05,0,0,0.05,45.85,0)" xlink:href="#az"/></g><g id="z"><use transform="matrix(0.05,0,0,0.05,0,0)" xlink:href="#am"/><use transform="matrix(0.05,0,0,0.05,14.950000000000001,0)" xlink:href="#ag"/><use transform="matrix(0.05,0,0,0.05,24.950000000000003,0)" xlink:href="#aq"/><use transform="matrix(0.05,0,0,0.05,34.95,0)" xlink:href="#ak"/><use transform="matrix(0.05,0,0,0.05,38.900000000000006,0)" xlink:href="#ac"/><use transform="matrix(0.05,0,0,0.05,47.900000000000006,0)" xlink:href="#ag"/><use transform="matrix(0.05,0,0,0.05,57.900000000000006,0)" xlink:href="#ah"/><use transform="matrix(0.05,0,0,0.05,61.85,0)" xlink:href="#aA"/><use transform="matrix(0.05,0,0,0.05,66.85000000000001,0)" xlink:href="#ai"/><use transform="matrix(0.05,0,0,0.05,71.85000000000001,0)" xlink:href="#ae"/><use transform="matrix(0.05,0,0,0.05,81.85000000000001,0)" xlink:href="#am"/><use transform="matrix(0.05,0,0,0.05,96.80000000000001,0)" xlink:href="#an"/></g><path d="M240 0l2-218c-23 76-54 145-80 218h-23L58-218 59 0H30v-248h44l77 211c21-75 51-140 76-211h43V0h-30" id="aK"/><g id="A"><use transform="matrix(0.05,0,0,0.05,0,0)" xlink:href="#aa"/><use transform="matrix(0.05,0,0,0.05,12,0)" xlink:href="#az"/><use transform="matrix(0.05,0,0,0.05,22,0)" xlink:href="#az"/><use transform="matrix(0.05,0,0,0.05,32,0)" xlink:href="#aA"/><use transform="matrix(0.05,0,0,0.05,37,0)" xlink:href="#ai"/><use transform="matrix(0.05,0,0,0.05,42,0)" xlink:href="#ae"/><use transform="matrix(0.05,0,0,0.05,52,0)" xlink:href="#am"/><use transform="matrix(0.05,0,0,0.05,66.95,0)" xlink:href="#ap"/><use transform="matrix(0.05,0,0,0.05,72.9,0)" xlink:href="#aA"/><use transform="matrix(0.05,0,0,0.05,77.9,0)" xlink:href="#aK"/><use transform="matrix(0.05,0,0,0.05,92.85000000000001,0)" xlink:href="#ag"/><use transform="matrix(0.05,0,0,0.05,102.85000000000001,0)" xlink:href="#aq"/><use transform="matrix(0.05,0,0,0.05,112.85000000000001,0)" xlink:href="#ak"/><use transform="matrix(0.05,0,0,0.05,116.80000000000001,0)" xlink:href="#ac"/><use transform="matrix(0.05,0,0,0.05,125.80000000000001,0)" xlink:href="#ag"/><use transform="matrix(0.05,0,0,0.05,135.8,0)" xlink:href="#ah"/><use transform="matrix(0.05,0,0,0.05,139.75,0)" xlink:href="#aA"/><use transform="matrix(0.05,0,0,0.05,144.75,0)" xlink:href="#ai"/><use transform="matrix(0.05,0,0,0.05,149.75,0)" xlink:href="#ae"/><use transform="matrix(0.05,0,0,0.05,159.75,0)" xlink:href="#am"/></g><g id="B"><use transform="matrix(0.05,0,0,0.05,0,0)" xlink:href="#aD"/><use transform="matrix(0.05,0,0,0.05,12.950000000000001,0)" xlink:href="#ae"/><use transform="matrix(0.05,0,0,0.05,22.950000000000003,0)" xlink:href="#am"/><use transform="matrix(0.05,0,0,0.05,37.900000000000006,0)" xlink:href="#aC"/><use transform="matrix(0.05,0,0,0.05,47.900000000000006,0)" xlink:href="#aB"/><use transform="matrix(0.05,0,0,0.05,56.900000000000006,0)" xlink:href="#ae"/><use transform="matrix(0.05,0,0,0.05,66.9,0)" xlink:href="#aA"/><use transform="matrix(0.05,0,0,0.05,71.9,0)" xlink:href="#ai"/><use transform="matrix(0.05,0,0,0.05,76.9,0)" xlink:href="#ae"/><use transform="matrix(0.05,0,0,0.05,86.9,0)" xlink:href="#am"/><use transform="matrix(0.05,0,0,0.05,101.85000000000001,0)" xlink:href="#ap"/><use transform="matrix(0.05,0,0,0.05,107.80000000000001,0)" xlink:href="#aA"/><use transform="matrix(0.05,0,0,0.05,112.80000000000001,0)" xlink:href="#aK"/><use transform="matrix(0.05,0,0,0.05,127.75,0)" xlink:href="#ag"/><use transform="matrix(0.05,0,0,0.05,137.75,0)" xlink:href="#aq"/><use transform="matrix(0.05,0,0,0.05,147.75,0)" xlink:href="#ak"/><use transform="matrix(0.05,0,0,0.05,151.7,0)" xlink:href="#ac"/><use transform="matrix(0.05,0,0,0.05,160.7,0)" xlink:href="#ag"/><use transform="matrix(0.05,0,0,0.05,170.7,0)" xlink:href="#ah"/><use transform="matrix(0.05,0,0,0.05,174.64999999999998,0)" xlink:href="#aA"/><use transform="matrix(0.05,0,0,0.05,179.64999999999998,0)" xlink:href="#ai"/><use transform="matrix(0.05,0,0,0.05,184.64999999999998,0)" xlink:href="#ae"/><use transform="matrix(0.05,0,0,0.05,194.64999999999998,0)" xlink:href="#am"/></g><path d="M141 0L90-78 38 0H4l68-98-65-92h35l48 74 47-74h35l-64 92 68 98h-35" id="aL"/><g id="C"><use transform="matrix(0.05,0,0,0.05,0,0)" xlink:href="#aa"/><use transform="matrix(0.05,0,0,0.05,12,0)" xlink:href="#aL"/><use transform="matrix(0.05,0,0,0.05,21,0)" xlink:href="#ae"/></g><path d="M185-189c-5-48-123-54-124 2 14 75 158 14 163 119 3 78-121 87-175 55-17-10-28-26-33-46l33-7c5 56 141 63 141-1 0-78-155-14-162-118-5-82 145-84 179-34 5 7 8 16 11 25" id="aM"/><g id="D"><use transform="matrix(0.05,0,0,0.05,0,0)" xlink:href="#aM"/><use transform="matrix(0.05,0,0,0.05,12,0)" xlink:href="#aG"/><use transform="matrix(0.05,0,0,0.05,24.950000000000003,0)" xlink:href="#aC"/><use transform="matrix(0.05,0,0,0.05,34.95,0)" xlink:href="#ab"/><use transform="matrix(0.05,0,0,0.05,40.900000000000006,0)" xlink:href="#az"/></g><g id="E"><use transform="matrix(0.05,0,0,0.05,0,0)" xlink:href="#aM"/><use transform="matrix(0.05,0,0,0.05,12,0)" xlink:href="#ai"/><use transform="matrix(0.05,0,0,0.05,17,0)" xlink:href="#ag"/><use transform="matrix(0.05,0,0,0.05,27,0)" xlink:href="#ay"/><use transform="matrix(0.05,0,0,0.05,31.649999999999995,0)" xlink:href="#ay"/></g><path d="M160-131c35 5 61 23 61 61C221 17 115-2 30 0v-248c76 3 177-17 177 60 0 33-19 50-47 57zm-97-11c50-1 110 9 110-42 0-47-63-36-110-37v79zm0 115c55-2 124 14 124-45 0-56-70-42-124-44v89" id="aN"/><g id="F"><use transform="matrix(0.05,0,0,0.05,0,0)" xlink:href="#aM"/><use transform="matrix(0.05,0,0,0.05,12,0)" xlink:href="#aF"/><use transform="matrix(0.05,0,0,0.05,22,0)" xlink:href="#ae"/><use transform="matrix(0.05,0,0,0.05,32,0)" xlink:href="#ah"/><use transform="matrix(0.05,0,0,0.05,35.95,0)" xlink:href="#ah"/><use transform="matrix(0.05,0,0,0.05,39.900000000000006,0)" xlink:href="#an"/><use transform="matrix(0.05,0,0,0.05,48.900000000000006,0)" xlink:href="#aN"/><use transform="matrix(0.05,0,0,0.05,60.900000000000006,0)" xlink:href="#aC"/><use transform="matrix(0.05,0,0,0.05,70.9,0)" xlink:href="#aC"/><use transform="matrix(0.05,0,0,0.05,80.9,0)" xlink:href="#au"/></g><g id="G"><use transform="matrix(0.05,0,0,0.05,0,0)" xlink:href="#an"/><use transform="matrix(0.05,0,0,0.05,9,0)" xlink:href="#aF"/><use transform="matrix(0.05,0,0,0.05,19,0)" xlink:href="#ae"/><use transform="matrix(0.05,0,0,0.05,29,0)" xlink:href="#ah"/><use transform="matrix(0.05,0,0,0.05,32.95,0)" xlink:href="#ah"/><use transform="matrix(0.05,0,0,0.05,36.900000000000006,0)" xlink:href="#an"/><use transform="matrix(0.05,0,0,0.05,45.900000000000006,0)" xlink:href="#aj"/></g><path d="M30 0v-248h33v221h125V0H30" id="aO"/><path d="M18-100v-36l175-74v27L42-118l151 64v27" id="aP"/><path d="M18-27v-27l151-64-151-65v-27l175 74v36" id="aQ"/><g id="H"><use transform="matrix(0.05,0,0,0.05,0,0)" xlink:href="#aO"/><use transform="matrix(0.05,0,0,0.05,10,0)" xlink:href="#ak"/><use transform="matrix(0.05,0,0,0.05,13.949999999999998,0)" xlink:href="#an"/><use transform="matrix(0.05,0,0,0.05,22.95,0)" xlink:href="#ai"/><use transform="matrix(0.05,0,0,0.05,27.950000000000003,0)" xlink:href="#aP"/><use transform="matrix(0.05,0,0,0.05,38.45,0)" xlink:href="#aA"/><use transform="matrix(0.05,0,0,0.05,43.45,0)" xlink:href="#aM"/><use transform="matrix(0.05,0,0,0.05,55.45,0)" xlink:href="#aF"/><use transform="matrix(0.05,0,0,0.05,65.45,0)" xlink:href="#ae"/><use transform="matrix(0.05,0,0,0.05,75.45,0)" xlink:href="#ah"/><use transform="matrix(0.05,0,0,0.05,79.4,0)" xlink:href="#ah"/><use transform="matrix(0.05,0,0,0.05,83.35000000000001,0)" xlink:href="#aQ"/></g><g id="I"><use transform="matrix(0.05,0,0,0.05,0,0)" xlink:href="#aa"/><use transform="matrix(0.05,0,0,0.05,12,0)" xlink:href="#az"/><use transform="matrix(0.05,0,0,0.05,22,0)" xlink:href="#az"/><use transform="matrix(0.05,0,0,0.05,32,0)" xlink:href="#aM"/><use transform="matrix(0.05,0,0,0.05,44,0)" xlink:href="#aF"/><use transform="matrix(0.05,0,0,0.05,54,0)" xlink:href="#ae"/><use transform="matrix(0.05,0,0,0.05,64,0)" xlink:href="#ah"/><use transform="matrix(0.05,0,0,0.05,67.95,0)" xlink:href="#ah"/><use transform="matrix(0.05,0,0,0.05,71.9,0)" xlink:href="#ap"/><use transform="matrix(0.05,0,0,0.05,77.85000000000001,0)" xlink:href="#aA"/><use transform="matrix(0.05,0,0,0.05,82.85000000000001,0)" xlink:href="#aM"/><use transform="matrix(0.05,0,0,0.05,94.85000000000001,0)" xlink:href="#aF"/><use transform="matrix(0.05,0,0,0.05,104.85000000000001,0)" xlink:href="#ae"/><use transform="matrix(0.05,0,0,0.05,114.85000000000001,0)" xlink:href="#ah"/><use transform="matrix(0.05,0,0,0.05,118.80000000000001,0)" xlink:href="#ah"/></g><g id="J"><use transform="matrix(0.05,0,0,0.05,0,0)" xlink:href="#an"/><use transform="matrix(0.05,0,0,0.05,9,0)" xlink:href="#aF"/><use transform="matrix(0.05,0,0,0.05,19,0)" xlink:href="#ae"/><use transform="matrix(0.05,0,0,0.05,29,0)" xlink:href="#ah"/><use transform="matrix(0.05,0,0,0.05,32.95,0)" xlink:href="#ah"/><use transform="matrix(0.05,0,0,0.05,36.900000000000006,0)" xlink:href="#ar"/><use transform="matrix(0.05,0,0,0.05,42.85000000000001,0)" xlink:href="#aj"/></g><g id="K"><use transform="matrix(0.05,0,0,0.05,0,0)" xlink:href="#aD"/><use transform="matrix(0.05,0,0,0.05,12.950000000000001,0)" xlink:href="#ae"/><use transform="matrix(0.05,0,0,0.05,22.950000000000003,0)" xlink:href="#am"/><use transform="matrix(0.05,0,0,0.05,37.900000000000006,0)" xlink:href="#aC"/><use transform="matrix(0.05,0,0,0.05,47.900000000000006,0)" xlink:href="#aB"/><use transform="matrix(0.05,0,0,0.05,56.900000000000006,0)" xlink:href="#ae"/><use transform="matrix(0.05,0,0,0.05,66.9,0)" xlink:href="#aM"/><use transform="matrix(0.05,0,0,0.05,78.9,0)" xlink:href="#aF"/><use transform="matrix(0.05,0,0,0.05,88.9,0)" xlink:href="#ae"/><use transform="matrix(0.05,0,0,0.05,98.9,0)" xlink:href="#ah"/><use transform="matrix(0.05,0,0,0.05,102.85000000000001,0)" xlink:href="#ah"/><use transform="matrix(0.05,0,0,0.05,106.80000000000001,0)" xlink:href="#ap"/><use transform="matrix(0.05,0,0,0.05,112.75,0)" xlink:href="#aA"/><use transform="matrix(0.05,0,0,0.05,117.75,0)" xlink:href="#aM"/><use transform="matrix(0.05,0,0,0.05,129.75,0)" xlink:href="#aF"/><use transform="matrix(0.05,0,0,0.05,139.75,0)" xlink:href="#ae"/><use transform="matrix(0.05,0,0,0.05,149.75,0)" xlink:href="#ah"/><use transform="matrix(0.05,0,0,0.05,153.7,0)" xlink:href="#ah"/></g><path d="M140-251c81 0 123 46 123 126C263-46 219 4 140 4 59 4 17-45 17-125s42-126 123-126zm0 227c63 0 89-41 89-101s-29-99-89-99c-61 0-89 39-89 99S79-25 140-24" id="aR"/><g id="L"><use transform="matrix(0.05,0,0,0.05,0,0)" xlink:href="#aM"/><use transform="matrix(0.05,0,0,0.05,12,0)" xlink:href="#aF"/><use transform="matrix(0.05,0,0,0.05,22,0)" xlink:href="#ae"/><use transform="matrix(0.05,0,0,0.05,32,0)" xlink:href="#ah"/><use transform="matrix(0.05,0,0,0.05,35.95,0)" xlink:href="#ah"/><use transform="matrix(0.05,0,0,0.05,39.900000000000006,0)" xlink:href="#aR"/><use transform="matrix(0.05,0,0,0.05,53.900000000000006,0)" xlink:href="#al"/><use transform="matrix(0.05,0,0,0.05,63.900000000000006,0)" xlink:href="#ae"/></g><g id="M"><use transform="matrix(0.05,0,0,0.05,0,0)" xlink:href="#aN"/><use transform="matrix(0.05,0,0,0.05,12,0)" xlink:href="#aC"/><use transform="matrix(0.05,0,0,0.05,22,0)" xlink:href="#aG"/></g><g id="N"><use transform="matrix(0.05,0,0,0.05,0,0)" xlink:href="#at"/><use transform="matrix(0.05,0,0,0.05,12.950000000000001,0)" xlink:href="#ae"/><use transform="matrix(0.05,0,0,0.05,22.950000000000003,0)" xlink:href="#ah"/><use transform="matrix(0.05,0,0,0.05,26.900000000000002,0)" xlink:href="#am"/><use transform="matrix(0.05,0,0,0.05,41.85,0)" xlink:href="#ae"/><use transform="matrix(0.05,0,0,0.05,51.85,0)" xlink:href="#ai"/></g><g id="O"><use transform="matrix(0.05,0,0,0.05,0,0)" xlink:href="#aa"/><use transform="matrix(0.05,0,0,0.05,12,0)" xlink:href="#ab"/><use transform="matrix(0.05,0,0,0.05,17.95,0)" xlink:href="#am"/><use transform="matrix(0.05,0,0,0.05,32.9,0)" xlink:href="#aC"/><use transform="matrix(0.05,0,0,0.05,42.9,0)" xlink:href="#ab"/></g><path d="M15-91v-56l181-69v40L49-119l147 57v40" id="aS"/><path d="M25-224v-37h50v37H25zM25 0v-190h50V0H25" id="aT"/><path d="M135-194c87-1 58 113 63 194h-50c-7-57 23-157-34-157-59 0-34 97-39 157H25l-1-190h47c2 12-1 28 3 38 12-26 28-41 61-42" id="aU"/><path d="M115-3C79 11 28 4 28-45v-112H4v-33h27l15-45h31v45h36v33H77v99c-1 23 16 31 38 25v30" id="aV"/><path d="M185-48c-13 30-37 53-82 52C43 2 14-33 14-96s30-98 90-98c62 0 83 45 84 108H66c0 31 8 55 39 56 18 0 30-7 34-22zm-45-69c5-46-57-63-70-21-2 6-4 13-4 21h74" id="aW"/><path d="M135-150c-39-12-60 13-60 57V0H25l-1-190h47c2 13-1 29 3 40 6-28 27-53 61-41v41" id="aX"/><path d="M121-226c-27-7-43 5-38 36h38v33H83V0H34v-157H6v-33h28c-9-59 32-81 87-68v32" id="aY"/><path d="M133-34C117-15 103 5 69 4 32 3 11-16 11-54c-1-60 55-63 116-61 1-26-3-47-28-47-18 1-26 9-28 27l-52-2c7-38 36-58 82-57s74 22 75 68l1 82c-1 14 12 18 25 15v27c-30 8-71 5-69-32zm-48 3c29 0 43-24 42-57-32 0-66-3-65 30 0 17 8 27 23 27" id="aZ"/><path d="M190-63c-7 42-38 67-86 67-59 0-84-38-90-98-12-110 154-137 174-36l-49 2c-2-19-15-32-35-32-30 0-35 28-38 64-6 74 65 87 74 30" id="ba"/><path d="M15-22v-40l146-57-146-57v-40l181 69v56" id="bb"/><g id="P"><use transform="matrix(0.05,0,0,0.05,0,0)" xlink:href="#aS"/><use transform="matrix(0.05,0,0,0.05,10.5,0)" xlink:href="#aS"/><use transform="matrix(0.05,0,0,0.05,21,0)" xlink:href="#aT"/><use transform="matrix(0.05,0,0,0.05,26,0)" xlink:href="#aU"/><use transform="matrix(0.05,0,0,0.05,36.95,0)" xlink:href="#aV"/><use transform="matrix(0.05,0,0,0.05,42.900000000000006,0)" xlink:href="#aW"/><use transform="matrix(0.05,0,0,0.05,52.900000000000006,0)" xlink:href="#aX"/><use transform="matrix(0.05,0,0,0.05,59.900000000000006,0)" xlink:href="#aY"/><use transform="matrix(0.05,0,0,0.05,65.85000000000001,0)" xlink:href="#aZ"/><use transform="matrix(0.05,0,0,0.05,75.85000000000001,0)" xlink:href="#ba"/><use transform="matrix(0.05,0,0,0.05,85.85000000000001,0)" xlink:href="#aW"/><use transform="matrix(0.05,0,0,0.05,95.85000000000001,0)" xlink:href="#bb"/><use transform="matrix(0.05,0,0,0.05,106.35000000000001,0)" xlink:href="#bb"/></g><path d="M24 0v-248h52V0H24" id="bc"/><path d="M67-125c0 53 21 87 73 88 37 1 54-22 65-47l45 17C233-25 199 4 140 4 58 4 20-42 15-125 8-235 124-281 211-232c18 10 29 29 36 50l-46 12c-8-25-30-41-62-41-52 0-71 34-72 86" id="bd"/><path d="M114-157C55-157 80-60 75 0H25v-261h50l-1 109c12-26 28-41 61-42 86-1 58 113 63 194h-50c-7-57 23-157-34-157" id="be"/><g id="Q"><use transform="matrix(0.05,0,0,0.05,0,0)" xlink:href="#bc"/><use transform="matrix(0.05,0,0,0.05,5,0)" xlink:href="#bd"/><use transform="matrix(0.05,0,0,0.05,17.950000000000003,0)" xlink:href="#be"/><use transform="matrix(0.05,0,0,0.05,28.900000000000006,0)" xlink:href="#aZ"/><use transform="matrix(0.05,0,0,0.05,38.900000000000006,0)" xlink:href="#aX"/><use transform="matrix(0.05,0,0,0.05,45.900000000000006,0)" xlink:href="#aZ"/><use transform="matrix(0.05,0,0,0.05,55.900000000000006,0)" xlink:href="#ba"/><use transform="matrix(0.05,0,0,0.05,65.9,0)" xlink:href="#aV"/><use transform="matrix(0.05,0,0,0.05,71.85000000000001,0)" xlink:href="#aW"/><use transform="matrix(0.05,0,0,0.05,81.85000000000001,0)" xlink:href="#aX"/></g><g id="R"><use transform="matrix(0.05,0,0,0.05,0,0)" xlink:href="#aD"/><use transform="matrix(0.05,0,0,0.05,12.950000000000001,0)" xlink:href="#ae"/><use transform="matrix(0.05,0,0,0.05,22.950000000000003,0)" xlink:href="#am"/><use transform="matrix(0.05,0,0,0.05,37.900000000000006,0)" xlink:href="#aC"/><use transform="matrix(0.05,0,0,0.05,47.900000000000006,0)" xlink:href="#ai"/><use transform="matrix(0.05,0,0,0.05,52.900000000000006,0)" xlink:href="#ae"/><use transform="matrix(0.05,0,0,0.05,62.900000000000006,0)" xlink:href="#aA"/><use transform="matrix(0.05,0,0,0.05,67.9,0)" xlink:href="#ai"/><use transform="matrix(0.05,0,0,0.05,72.9,0)" xlink:href="#ae"/><use transform="matrix(0.05,0,0,0.05,82.9,0)" xlink:href="#am"/><use transform="matrix(0.05,0,0,0.05,97.85000000000001,0)" xlink:href="#ap"/><use transform="matrix(0.05,0,0,0.05,103.80000000000001,0)" xlink:href="#aA"/><use transform="matrix(0.05,0,0,0.05,108.80000000000001,0)" xlink:href="#aA"/><use transform="matrix(0.05,0,0,0.05,113.80000000000001,0)" xlink:href="#ai"/><use transform="matrix(0.05,0,0,0.05,118.80000000000001,0)" xlink:href="#ae"/><use transform="matrix(0.05,0,0,0.05,128.8,0)" xlink:href="#am"/></g><path d="M230 0l2-204L168 0h-37L68-204 70 0H24v-248h70l56 185 57-185h69V0h-46" id="bf"/><path d="M195-6C206 82 75 100 31 46c-4-6-6-13-8-21l49-6c3 16 16 24 34 25 40 0 42-37 40-79-11 22-30 35-61 35-53 0-70-43-70-97 0-56 18-96 73-97 30 0 46 14 59 34l2-30h47zm-90-29c32 0 41-27 41-63 0-35-9-62-40-62-32 0-39 29-40 63 0 36 9 62 39 62" id="bg"/><g id="S"><use transform="matrix(0.05,0,0,0.05,0,0)" xlink:href="#bc"/><use transform="matrix(0.05,0,0,0.05,5,0)" xlink:href="#bf"/><use transform="matrix(0.05,0,0,0.05,19.950000000000003,0)" xlink:href="#aZ"/><use transform="matrix(0.05,0,0,0.05,29.950000000000003,0)" xlink:href="#bg"/><use transform="matrix(0.05,0,0,0.05,40.900000000000006,0)" xlink:href="#aT"/><use transform="matrix(0.05,0,0,0.05,45.900000000000006,0)" xlink:href="#ba"/><use transform="matrix(0.05,0,0,0.05,55.900000000000006,0)" xlink:href="#bd"/><use transform="matrix(0.05,0,0,0.05,68.85000000000001,0)" xlink:href="#be"/><use transform="matrix(0.05,0,0,0.05,79.80000000000001,0)" xlink:href="#aZ"/><use transform="matrix(0.05,0,0,0.05,89.80000000000001,0)" xlink:href="#aX"/><use transform="matrix(0.05,0,0,0.05,96.80000000000001,0)" xlink:href="#aZ"/><use transform="matrix(0.05,0,0,0.05,106.80000000000001,0)" xlink:href="#ba"/><use transform="matrix(0.05,0,0,0.05,116.80000000000001,0)" xlink:href="#aV"/><use transform="matrix(0.05,0,0,0.05,122.75,0)" xlink:href="#aW"/><use transform="matrix(0.05,0,0,0.05,132.75,0)" xlink:href="#aX"/></g><path d="M220-157c-53 9-28 100-34 157h-49v-107c1-27-5-49-29-50C55-147 81-57 75 0H25l-1-190h47c2 12-1 28 3 38 10-53 101-56 108 0 13-22 24-43 59-42 82 1 51 116 57 194h-49v-107c-1-25-5-48-29-50" id="bh"/><g id="T"><use transform="matrix(0.05,0,0,0.05,0,0)" xlink:href="#bc"/><use transform="matrix(0.05,0,0,0.05,5,0)" xlink:href="#bc"/><use transform="matrix(0.05,0,0,0.05,10,0)" xlink:href="#aV"/><use transform="matrix(0.05,0,0,0.05,15.949999999999998,0)" xlink:href="#aW"/><use transform="matrix(0.05,0,0,0.05,25.950000000000003,0)" xlink:href="#bh"/></g><path d="M25 0v-261h50V0H25" id="bi"/><g id="U"><use transform="matrix(0.05,0,0,0.05,0,0)" xlink:href="#bc"/><use transform="matrix(0.05,0,0,0.05,5,0)" xlink:href="#bf"/><use transform="matrix(0.05,0,0,0.05,19.950000000000003,0)" xlink:href="#aZ"/><use transform="matrix(0.05,0,0,0.05,29.950000000000003,0)" xlink:href="#bg"/><use transform="matrix(0.05,0,0,0.05,40.900000000000006,0)" xlink:href="#aT"/><use transform="matrix(0.05,0,0,0.05,45.900000000000006,0)" xlink:href="#ba"/><use transform="matrix(0.05,0,0,0.05,55.900000000000006,0)" xlink:href="#aZ"/><use transform="matrix(0.05,0,0,0.05,65.9,0)" xlink:href="#bi"/><use transform="matrix(0.05,0,0,0.05,70.9,0)" xlink:href="#bi"/><use transform="matrix(0.05,0,0,0.05,75.9,0)" xlink:href="#aV"/><use transform="matrix(0.05,0,0,0.05,81.85000000000001,0)" xlink:href="#aW"/><use transform="matrix(0.05,0,0,0.05,91.85000000000001,0)" xlink:href="#bh"/></g><path d="M199 0l-22-63H83L61 0H9l90-248h61L250 0h-51zm-33-102l-36-108c-10 38-24 72-36 108h72" id="bj"/><path d="M147 0L96-86 75-71V0H25v-261h50v150l67-79h53l-66 74L201 0h-54" id="bk"/><g id="V"><use transform="matrix(0.05,0,0,0.05,0,0)" xlink:href="#bc"/><use transform="matrix(0.05,0,0,0.05,5,0)" xlink:href="#bj"/><use transform="matrix(0.05,0,0,0.05,17.950000000000003,0)" xlink:href="#aV"/><use transform="matrix(0.05,0,0,0.05,23.900000000000002,0)" xlink:href="#aV"/><use transform="matrix(0.05,0,0,0.05,29.85,0)" xlink:href="#aZ"/><use transform="matrix(0.05,0,0,0.05,39.85,0)" xlink:href="#ba"/><use transform="matrix(0.05,0,0,0.05,49.85,0)" xlink:href="#bk"/><use transform="matrix(0.05,0,0,0.05,59.85,0)" xlink:href="#bc"/><use transform="matrix(0.05,0,0,0.05,64.85,0)" xlink:href="#aV"/><use transform="matrix(0.05,0,0,0.05,70.8,0)" xlink:href="#aW"/><use transform="matrix(0.05,0,0,0.05,80.8,0)" xlink:href="#bh"/></g><path d="M24-248c120-7 223 5 221 122C244-46 201 0 124 0H24v-248zM76-40c74 7 117-18 117-86 0-67-45-88-117-82v168" id="bl"/><path d="M137-138c1-29-70-34-71-4 15 46 118 7 119 86 1 83-164 76-172 9l43-7c4 19 20 25 44 25 33 8 57-30 24-41C81-84 22-81 20-136c-2-80 154-74 161-7" id="bm"/><g id="W"><use transform="matrix(0.05,0,0,0.05,0,0)" xlink:href="#bc"/><use transform="matrix(0.05,0,0,0.05,5,0)" xlink:href="#bl"/><use transform="matrix(0.05,0,0,0.05,17.950000000000003,0)" xlink:href="#aW"/><use transform="matrix(0.05,0,0,0.05,27.950000000000003,0)" xlink:href="#aY"/><use transform="matrix(0.05,0,0,0.05,33.900000000000006,0)" xlink:href="#aW"/><use transform="matrix(0.05,0,0,0.05,43.900000000000006,0)" xlink:href="#aU"/><use transform="matrix(0.05,0,0,0.05,54.85,0)" xlink:href="#bm"/><use transform="matrix(0.05,0,0,0.05,64.85000000000001,0)" xlink:href="#aW"/><use transform="matrix(0.05,0,0,0.05,74.85000000000001,0)" xlink:href="#bc"/><use transform="matrix(0.05,0,0,0.05,79.85000000000001,0)" xlink:href="#aV"/><use transform="matrix(0.05,0,0,0.05,85.80000000000001,0)" xlink:href="#aW"/><use transform="matrix(0.05,0,0,0.05,95.80000000000001,0)" xlink:href="#bh"/></g><g id="X"><use transform="matrix(0.05,0,0,0.05,0,0)" xlink:href="#bc"/><use transform="matrix(0.05,0,0,0.05,5,0)" xlink:href="#bf"/><use transform="matrix(0.05,0,0,0.05,19.950000000000003,0)" xlink:href="#aZ"/><use transform="matrix(0.05,0,0,0.05,29.950000000000003,0)" xlink:href="#bg"/><use transform="matrix(0.05,0,0,0.05,40.900000000000006,0)" xlink:href="#aT"/><use transform="matrix(0.05,0,0,0.05,45.900000000000006,0)" xlink:href="#ba"/><use transform="matrix(0.05,0,0,0.05,55.900000000000006,0)" xlink:href="#aZ"/><use transform="matrix(0.05,0,0,0.05,65.9,0)" xlink:href="#bi"/><use transform="matrix(0.05,0,0,0.05,70.9,0)" xlink:href="#bj"/><use transform="matrix(0.05,0,0,0.05,83.85000000000001,0)" xlink:href="#aV"/><use transform="matrix(0.05,0,0,0.05,89.80000000000001,0)" xlink:href="#aV"/><use transform="matrix(0.05,0,0,0.05,95.75000000000001,0)" xlink:href="#aZ"/><use transform="matrix(0.05,0,0,0.05,105.75,0)" xlink:href="#ba"/><use transform="matrix(0.05,0,0,0.05,115.75,0)" xlink:href="#bk"/><use transform="matrix(0.05,0,0,0.05,125.75,0)" xlink:href="#bc"/><use transform="matrix(0.05,0,0,0.05,130.75,0)" xlink:href="#aV"/><use transform="matrix(0.05,0,0,0.05,136.7,0)" xlink:href="#aW"/><use transform="matrix(0.05,0,0,0.05,146.7,0)" xlink:href="#bh"/></g><g id="Y"><use transform="matrix(0.05,0,0,0.05,0,0)" xlink:href="#bc"/><use transform="matrix(0.05,0,0,0.05,5,0)" xlink:href="#bf"/><use transform="matrix(0.05,0,0,0.05,19.950000000000003,0)" xlink:href="#aZ"/><use transform="matrix(0.05,0,0,0.05,29.950000000000003,0)" xlink:href="#bg"/><use transform="matrix(0.05,0,0,0.05,40.900000000000006,0)" xlink:href="#aT"/><use transform="matrix(0.05,0,0,0.05,45.900000000000006,0)" xlink:href="#ba"/><use transform="matrix(0.05,0,0,0.05,55.900000000000006,0)" xlink:href="#aZ"/><use transform="matrix(0.05,0,0,0.05,65.9,0)" xlink:href="#bi"/><use transform="matrix(0.05,0,0,0.05,70.9,0)" xlink:href="#bl"/><use transform="matrix(0.05,0,0,0.05,83.85000000000001,0)" xlink:href="#aW"/><use transform="matrix(0.05,0,0,0.05,93.85000000000001,0)" xlink:href="#aY"/><use transform="matrix(0.05,0,0,0.05,99.80000000000001,0)" xlink:href="#aW"/><use transform="matrix(0.05,0,0,0.05,109.80000000000001,0)" xlink:href="#aU"/><use transform="matrix(0.05,0,0,0.05,120.75,0)" xlink:href="#bm"/><use transform="matrix(0.05,0,0,0.05,130.75,0)" xlink:href="#aW"/><use transform="matrix(0.05,0,0,0.05,140.75,0)" xlink:href="#bc"/><use transform="matrix(0.05,0,0,0.05,145.75,0)" xlink:href="#aV"/><use transform="matrix(0.05,0,0,0.05,151.7,0)" xlink:href="#aW"/><use transform="matrix(0.05,0,0,0.05,161.7,0)" xlink:href="#bh"/></g><path d="M169-182c-1-43-94-46-97-3 18 66 151 10 154 114 3 95-165 93-204 36-6-8-10-19-12-30l50-8c3 46 112 56 116 5-17-69-150-10-154-114-4-87 153-88 188-35 5 8 8 18 10 28" id="bn"/><path d="M135-194c53 0 70 44 70 98 0 56-19 98-73 100-31 1-45-17-59-34 3 33 2 69 2 105H25l-1-265h48c2 10 0 23 3 31 11-24 29-35 60-35zM114-30c33 0 39-31 40-66 0-38-9-64-40-64-56 0-55 130 0 130" id="bo"/><g id="Z"><use transform="matrix(0.05,0,0,0.05,0,0)" xlink:href="#bc"/><use transform="matrix(0.05,0,0,0.05,5,0)" xlink:href="#bn"/><use transform="matrix(0.05,0,0,0.05,17,0)" xlink:href="#bo"/><use transform="matrix(0.05,0,0,0.05,27.950000000000003,0)" xlink:href="#aW"/><use transform="matrix(0.05,0,0,0.05,37.95,0)" xlink:href="#bi"/><use transform="matrix(0.05,0,0,0.05,42.95,0)" xlink:href="#bi"/></g></defs></g></svg>